<?xml version="1.0" encoding="UTF-8"?>
<svg id="Layer_2" data-name="Layer 2" xmlns="http://www.w3.org/2000/svg" viewBox="0 0 452.63 448.56">
  <defs>
    <style>
      .cls-1 {
        fill: #ff9669;
      }

      .cls-2 {
        fill: #fff;
      }

      .cls-3 {
        fill: #2a91c4;
      }

      .cls-4 {
        fill: #51a5ea;
      }

      .cls-5 {
        fill: #4f8cbf;
      }

      .cls-6 {
        fill: #1375b7;
      }

      .cls-7 {
        fill: #e06236;
      }
    </style>
  </defs>
  <g id="Layer_1-2" data-name="Layer 1">
    <g>
      <g>
        <path class="cls-5" d="M165.42,60.93c-51.07,15.91-93.85,52.12-118.03,99.83-24.84,49.01-27.22,107.66-7.65,158.83,18.88,49.4,58.25,89.47,106.75,110.21,43.46,18.58,92.49,20.12,137.51,5.9,50.84-16.06,93.11-53.88,116.26-101.69,24.06-49.7,25.41-108.71,4.66-159.74-21.91-53.91-68.13-95.65-123.47-113.12-1.83-.58-2.6,2.28-.79,2.86,53.73,16.96,97.74,56.76,120.27,108.37,23.3,53.38,20.1,116.1-6.92,167.43-27,51.31-76.69,87.4-133.29,98.81-47.18,9.51-96.05.71-137.28-23.86-47.9-28.55-81.2-77.76-91.02-132.49-10.21-56.91,6.72-116.37,44.29-160.07,23.6-27.45,54.98-47.66,89.49-58.41,1.82-.57,1.04-3.43-.79-2.86h0Z"/>
        <path class="cls-5" d="M77.99,248.82c.3,52.14,28.44,100.39,73.67,126.33,45.71,26.22,103.63,24.36,148.23-3.2,44.37-27.42,70.22-77.95,68.15-129.8-2.07-51.76-33.26-98.97-79.04-122.63-31.73-16.4-69.13-19.87-103.57-10.87-36.08,9.43-67.21,33.56-86.61,65.21.68-.18,1.35-.35,2.03-.53-15.72-7.04-31.44-14.08-47.16-21.12-1.73-.77-3.24,1.78-1.5,2.56,15.72,7.04,31.44,14.08,47.16,21.12.75.34,1.57.21,2.03-.53,31.96-52.15,94.08-78.49,153.79-65.04,53.64,12.08,95.69,56.11,107.1,109.56,11.75,55.06-11.81,112.77-57.4,145.21-45.72,32.54-107.96,33.96-155.77,5.13-42.22-25.46-67.88-72.34-68.16-121.39-.01-1.91-2.97-1.91-2.96,0h0Z"/>
        <path class="cls-5" d="M297.73,291.65c13.38-23.33,15.67-52.35,4.71-77.14-11.14-25.21-33.51-43.57-60.39-49.58-25.29-5.66-51.94,1.29-72.03,17.34-20.83,16.65-32.09,42.94-31.33,69.38,1.25,43.69,37.23,78.96,80.25,82.03-.49-.49-.99-.99-1.48-1.48v60.24c0,1.91,2.96,1.91,2.96,0v-60.24c0-.85-.68-1.42-1.48-1.48-33.25-2.38-61.96-24.22-72.97-55.69-9.71-27.77-2.91-59.09,16.21-81.13,19.45-22.42,50.23-31.99,79.07-26.11,30.15,6.14,54.2,29.84,62.4,59.2,5.92,21.2,2.38,44.2-8.49,63.17-.95,1.66,1.61,3.15,2.56,1.5h0Z"/>
      </g>
      <g>
        <path class="cls-4" d="M274.53,244.08c0-28.41-23.03-51.44-51.44-51.44s-51.45,23.03-51.45,51.44c0,24.41,17.01,44.84,39.83,50.11l11.62,19.3,11.62-19.3c22.81-5.27,39.83-25.7,39.83-50.11Z"/>
        <path class="cls-6" d="M219.89,288.79l12.67,6.67c21.6-3.3,41.97-24.47,41.97-50.55,0-3.77-.41-7.45-1.18-10.99l-34.69-23.68-18.77,78.55Z"/>
        <g>
          <path class="cls-1" d="M249.98,232.16c0-14.85-12.04-26.89-26.89-26.89s-26.89,12.04-26.89,26.89c0,8.32,3.78,15.75,9.7,20.68,5.19,8.34,6.23,19.26,6.23,19.26h21.91s1.04-10.91,6.23-19.26c5.93-4.93,9.71-12.36,9.71-20.68Z"/>
          <path class="cls-3" d="M236.1,269.48c.3,1.87-.79,3.6-2.44,3.87l-19.48,3.17c-1.65.27-3.23-1.03-3.54-2.9h0c-.3-1.87.79-3.6,2.43-3.87l19.48-3.17c1.65-.27,3.23,1.03,3.54,2.9h0Z"/>
          <path class="cls-3" d="M236.1,276.33c.3,1.87-.79,3.6-2.44,3.87l-19.48,3.17c-1.65.27-3.23-1.03-3.54-2.9h0c-.3-1.87.79-3.6,2.43-3.87l19.48-3.17c1.65-.27,3.23,1.03,3.54,2.9h0Z"/>
          <path class="cls-3" d="M214.95,283.24c1.14,3.67,4.56,6.33,8.6,6.33,4.98,0,9.01-4.03,9.01-9.01,0-.06,0-.12,0-.19l-17.61,2.87Z"/>
          <path class="cls-2" d="M239.42,230.47c-5.22,9.33-10.44,18.65-15.67,27.98-5.22-9.33-10.44-18.65-15.67-27.98-.62-1.1-2.32-.14-1.71.96,5.48,9.79,10.96,19.57,16.44,29.36.22.38.56.5.9.47.01,0,.03,0,.04,0,.01,0,.03,0,.04,0,.33.03.68-.09.9-.47,5.48-9.79,10.96-19.57,16.44-29.36.62-1.1-1.09-2.06-1.71-.96Z"/>
        </g>
      </g>
      <g>
        <path class="cls-1" d="M261.87,38.79c0-21.42-17.37-38.79-38.79-38.79s-38.79,17.37-38.79,38.79c0,18.41,12.83,33.81,30.03,37.78l8.76,14.55,8.76-14.55c17.2-3.97,30.03-19.38,30.03-37.78Z"/>
        <path class="cls-7" d="M261.87,38.79c0-1.85-.14-3.66-.39-5.44l-32.54-15.32.63,8.79-5.89,13.77-3.8,10.15-.31,9.49,21.77,12.78c12.21-6.53,20.52-19.39,20.52-34.21Z"/>
        <path class="cls-2" d="M219.89,50.73c-.24-.73-.37-1.53-.37-2.63,0-3.43.86-5.94,3.49-9.67,3-4.29,3.86-7.1,3.86-11.2,0-3.06-1.22-4.22-3.37-4.22s-3.37,1.16-3.37,4.22v4.65h-6.37v-4.22c0-6.86,3.37-10.78,9.92-10.78s9.92,3.92,9.92,10.78c0,4.59-1.22,7.9-4.53,12.31-2.64,3.55-3.43,5.63-3.43,8.39,0,.8.06,1.59.24,2.39h-6ZM226.08,53.73v6.49h-6.49v-6.49h6.49Z"/>
      </g>
      <g>
        <path class="cls-4" d="M395.46,114.62c0,19.08-15.46,34.54-34.54,34.54s-34.54-15.46-34.54-34.54,15.47-34.54,34.54-34.54,34.54,15.46,34.54,34.54Z"/>
        <path class="cls-6" d="M369.94,147.96c12.82-3.46,22.67-14.11,24.99-27.35l-6.9-4.69-55.51,4.77,37.42,27.28Z"/>
        <g>
          <path class="cls-2" d="M389.31,120.68c-.26-6.1-5.28-10.97-11.44-10.97-1.12,0-2.19.17-3.21.46-1.36-6.46-7.09-11.31-13.96-11.31s-12.53,4.8-13.93,11.21c-.9-.23-1.84-.36-2.81-.36-6.16,0-11.18,4.87-11.45,10.97h56.79Z"/>
          <g>
            <polygon class="cls-4" points="358.05 112.57 358.05 105.97 353.12 105.97 353.12 112.57 350.88 112.57 355.59 116.85 360.29 112.57 358.05 112.57"/>
            <polygon class="cls-4" points="363.78 110.26 363.78 116.85 368.71 116.85 368.71 110.26 370.95 110.26 366.25 105.97 361.54 110.26 363.78 110.26"/>
          </g>
        </g>
      </g>
      <g>
        <g>
          <rect class="cls-1" x="202.2" y="138.8" width="11.08" height="16.46"/>
          <rect class="cls-1" x="217.54" y="133.87" width="11.08" height="21.39"/>
          <rect class="cls-1" x="232.89" y="128.24" width="11.08" height="27.02"/>
        </g>
        <path class="cls-1" d="M239.22,114.62c-3.28.34-6.57.67-9.85,1.01-1.22.13-1.23,2.04,0,1.92,2.4-.25,4.8-.49,7.19-.74-7.74,7.13-18.95,10.11-29.38,8.61-1.21-.17-1.73,1.67-.51,1.85,10.62,1.53,21.98-1.18,30.15-8.11-.71,1.84-1.42,3.68-2.13,5.52-.45,1.16,1.41,1.65,1.85.51,1.2-3.12,2.4-6.23,3.61-9.35.21-.55-.34-1.27-.93-1.21Z"/>
      </g>
      <g>
        <g>
          <path class="cls-4" d="M131.99,79.67c5.12,18.38-5.63,37.42-24.01,42.54-18.38,5.12-37.42-5.63-42.54-24.01-5.12-18.38,5.63-37.43,24.01-42.54,18.38-5.12,37.43,5.63,42.54,24.01Z"/>
          <path class="cls-6" d="M133.25,89.95l-36.41-20.19-3.73,6.82,1.46,4.64.12,5.21-3.75,3.2-5.28,1.3-2.46.69-2.15,6.12,33.59,21.85c11.16-5.78,18.25-17.22,18.62-29.64Z"/>
        </g>
        <g>
          <path class="cls-2" d="M103.63,80.06l-.7-2.51-5.31,1.48c-.76-1.82-1.98-3.34-3.5-4.46l2.71-4.8-2.27-1.28-2.71,4.8c-1.74-.72-3.67-.98-5.63-.69l-1.48-5.31-2.51.7,1.48,5.31c-1.82.76-3.34,1.98-4.46,3.49l-4.8-2.71-1.28,2.27,4.8,2.71c-.72,1.74-.98,3.67-.69,5.62l-5.31,1.48.7,2.51,5.31-1.48c.76,1.82,1.98,3.34,3.49,4.46l-2.71,4.8,2.27,1.28,2.71-4.8c1.74.72,3.67.98,5.62.69l1.48,5.31,2.51-.7-1.48-5.31c1.82-.76,3.34-1.98,4.46-3.49l4.8,2.71,1.28-2.27-4.8-2.71c.72-1.74.98-3.67.69-5.62l5.31-1.48ZM89.15,87.94c-2.67.74-5.43-.82-6.17-3.48-.74-2.67.82-5.43,3.48-6.17,2.67-.74,5.43.82,6.17,3.48.74,2.67-.82,5.43-3.48,6.17Z"/>
          <path class="cls-2" d="M124.18,100.32l.28-1.94-4.09-.6c.04-1.48-.34-2.9-1.04-4.12l3.32-2.47-1.17-1.57-3.32,2.47c-.97-1.02-2.22-1.79-3.65-2.18l.6-4.09-1.94-.28-.6,4.09c-1.48-.04-2.9.34-4.12,1.04l-2.47-3.32-1.57,1.17,2.47,3.32c-1.02.98-1.79,2.22-2.18,3.65l-4.09-.6-.28,1.94,4.09.6c-.03,1.48.34,2.9,1.04,4.12l-3.32,2.47,1.17,1.57,3.32-2.47c.97,1.02,2.22,1.79,3.65,2.18l-.6,4.09,1.94.28.6-4.09c1.48.03,2.9-.35,4.12-1.04l2.47,3.32,1.57-1.17-2.47-3.32c1.02-.97,1.79-2.22,2.18-3.65l4.09.6ZM111.85,101.33c-2.05-.3-3.48-2.21-3.18-4.26.3-2.05,2.21-3.48,4.27-3.18,2.06.3,3.48,2.21,3.18,4.27-.3,2.05-2.21,3.48-4.27,3.17Z"/>
        </g>
      </g>
      <g>
        <path class="cls-1" d="M92.86,192.64h-23.79c-6.33,0-11.51,5.18-11.51,11.51v9.38c0,6.33,5.18,11.51,11.51,11.51h10.73l10.77,16.49v-16.49h2.29c6.33,0,11.51-5.18,11.51-11.51v-9.38c0-6.33-5.18-11.51-11.51-11.51Z"/>
        <g>
          <rect class="cls-2" x="64.9" y="200.85" width="32.13" height="2.4"/>
          <rect class="cls-2" x="64.9" y="207.25" width="32.13" height="2.4"/>
          <rect class="cls-2" x="64.9" y="213.64" width="32.13" height="2.4"/>
        </g>
      </g>
      <g>
        <path class="cls-4" d="M119.61,169.99h19.59c5.21,0,9.48,4.26,9.48,9.48v7.72c0,5.21-4.26,9.48-9.48,9.48h-8.83l-8.87,13.58v-13.58h-1.88c-5.21,0-9.48-4.26-9.48-9.48v-7.72c0-5.21,4.26-9.48,9.48-9.48Z"/>
        <g>
          <rect class="cls-2" x="116.17" y="176.76" width="26.46" height="1.97"/>
          <rect class="cls-2" x="116.17" y="182.02" width="26.46" height="1.97"/>
          <rect class="cls-2" x="116.17" y="187.29" width="26.46" height="1.98"/>
        </g>
      </g>
      <g>
        <polygon class="cls-4" points="338.6 197.91 314.61 197.91 314.61 244.1 348.71 244.1 348.71 207.87 338.6 197.91"/>
        <g>
          <g>
            <polygon class="cls-1" points="354.17 250.75 320.07 250.75 320.07 204.57 344.06 204.57 354.17 214.53 354.17 250.75"/>
            <polygon class="cls-6" points="344.06 204.57 354.17 214.53 344.06 214.53 344.06 204.57"/>
          </g>
          <g>
            <g>
              <rect class="cls-2" x="323.89" y="218.65" width="26.46" height="1.97"/>
              <rect class="cls-2" x="323.89" y="225.05" width="26.46" height="1.97"/>
            </g>
            <g>
              <rect class="cls-2" x="323.89" y="231.44" width="26.46" height="1.97"/>
              <rect class="cls-2" x="323.89" y="237.83" width="26.46" height="1.98"/>
            </g>
          </g>
        </g>
      </g>
      <g>
        <rect class="cls-4" x="260.74" y="311.57" width="6.89" height="57.9"/>
        <polygon class="cls-1" points="296.36 342.25 260.74 342.25 260.74 317.09 296.36 317.09 285.94 329.84 296.36 342.25"/>
      </g>
      <g>
        <path class="cls-4" d="M148.63,323.39c-1.05-19.45-29.15-19.45-30.2,0-.11,2.06,3.09,2.05,3.2,0,.83-15.34,22.98-15.34,23.81,0,.11,2.05,3.31,2.06,3.2,0h0Z"/>
        <path class="cls-1" d="M140.73,323.39c0,3.98-3.22,7.2-7.2,7.2s-7.2-3.23-7.2-7.2,3.22-7.2,7.2-7.2,7.2,3.22,7.2,7.2Z"/>
        <path class="cls-4" d="M158.15,324.31c-.51-13.76-10.85-24.11-24.62-24.62-13.75-.51-24.13,11.61-24.61,24.62-.08,2.06,3.12,2.06,3.2,0,.44-12.01,9.41-20.98,21.42-21.42,12-.44,21,10.08,21.42,21.42.08,2.06,3.27,2.06,3.2,0h0Z"/>
      </g>
      <g>
        <path class="cls-1" d="M452.63,253.09c0,19.08-15.46,34.54-34.54,34.54s-34.54-15.47-34.54-34.54,15.46-34.54,34.54-34.54,34.54,15.47,34.54,34.54Z"/>
        <path class="cls-7" d="M430.51,238.82l-21.55,30.27,20.19,16.72h0c13.23-4.47,22.86-16.72,23.45-31.31l-22.08-15.69Z"/>
        <g>
          <g>
            <path class="cls-2" d="M434.29,252.5c0,9.16-7.43,16.59-16.59,16.59s-16.59-7.43-16.59-16.59,7.43-16.59,16.59-16.59,16.59,7.43,16.59,16.59Z"/>
            <path class="cls-3" d="M417.7,271.26c-10.34,0-18.76-8.42-18.76-18.76s8.41-18.76,18.76-18.76,18.76,8.41,18.76,18.76-8.42,18.76-18.76,18.76ZM417.7,238.07c-7.96,0-14.43,6.47-14.43,14.43s6.47,14.43,14.43,14.43,14.43-6.47,14.43-14.43-6.47-14.43-14.43-14.43Z"/>
          </g>
          <path class="cls-3" d="M417.88,244.76c.43,0,.77.34.77.77v.39c1.05.12,1.95.46,2.77.98.29.16.54.43.54.86,0,.55-.45.98-1,.98-.18,0-.36-.05-.54-.16-.62-.37-1.23-.64-1.84-.79v3.43c2.72.68,3.88,1.77,3.88,3.68s-1.53,3.27-3.81,3.48v1.07c0,.43-.34.77-.77.77s-.79-.34-.79-.77v-1.11c-1.34-.14-2.58-.63-3.66-1.39-.3-.2-.48-.48-.48-.86,0-.55.43-.98.98-.98.22,0,.43.07.59.2.84.61,1.66,1.02,2.65,1.2v-3.52c-2.61-.68-3.83-1.66-3.83-3.68,0-1.91,1.52-3.24,3.75-3.41v-.37c0-.43.36-.77.79-.77ZM417.16,250.86v-3.16c-1.14.11-1.72.72-1.72,1.5s.34,1.21,1.72,1.66ZM418.58,253.34v3.25c1.14-.13,1.77-.7,1.77-1.56,0-.79-.39-1.27-1.77-1.7Z"/>
        </g>
      </g>
      <g>
        <path class="cls-4" d="M366.09,406.25c0,19.08-15.46,34.54-34.54,34.54s-34.54-15.46-34.54-34.54,15.46-34.54,34.54-34.54,34.54,15.46,34.54,34.54Z"/>
        <path class="cls-6" d="M365.48,412.68l-16.71-15.29-9.76-2.35h-14.17l-2.76,22.51v3.8l-7.31,1.46,23.9,17.25s.03,0,.04-.01l5.03-1.47c11.12-4.2,19.5-13.96,21.74-25.9Z"/>
        <path class="cls-2" d="M347.45,420.52h-4.64v-23.12h5.95l-17.22-10.58-17.22,10.58h5.95v23.12h-4.64c-.73,0-1.31.59-1.31,1.31s.59,1.31,1.31,1.31h31.82c.72,0,1.31-.59,1.31-1.31s-.59-1.31-1.31-1.31ZM336.76,420.52h-2.18v-23.12h2.18v23.12ZM326.33,397.39h2.18v23.12h-2.18v-23.12Z"/>
      </g>
      <g>
        <path class="cls-1" d="M69.08,289.57c0,19.08-15.46,34.54-34.54,34.54S0,308.65,0,289.57s15.47-34.54,34.54-34.54,34.54,15.46,34.54,34.54Z"/>
        <path class="cls-7" d="M34.54,284.97l-10.94,16.82-4.97.73,30.3,18.45c11.89-5.46,20.15-17.46,20.15-31.4,0-.03,0-.05,0-.08l-28.76-15.21-5.78,10.69Z"/>
        <path class="cls-3" d="M38.07,286.27c2.49-1.28,4.2-3.88,4.2-6.87,0-4.27-3.46-7.73-7.73-7.73s-7.73,3.46-7.73,7.73c0,3,1.71,5.59,4.2,6.87-7.08,1.61-12.38,7.93-12.38,15.5v.75h31.82v-.75c0-7.57-5.3-13.89-12.38-15.5Z"/>
      </g>
      <g>
        <path class="cls-4" d="M156.05,414.02c0,19.08-15.46,34.54-34.54,34.54s-34.54-15.47-34.54-34.54,15.47-34.54,34.54-34.54,34.54,15.46,34.54,34.54Z"/>
        <path class="cls-6" d="M110.7,423.95l23.15,22.33c11.2-4.28,19.59-14.22,21.69-26.33l-25.03-21.39.29,15.45-5.12,6.41-14.98,3.52Z"/>
        <path class="cls-2" d="M129.64,397.63c-6.41-6.41-16.83-6.41-23.24,0-6.41,6.41-6.41,16.83,0,23.24,5.62,5.62,14.32,6.31,20.7,2.08l8.74,8.74c1.28,1.28,3.34,1.28,4.62,0,1.28-1.28,1.28-3.34,0-4.62l-8.74-8.75c4.23-6.38,3.54-15.08-2.08-20.7ZM125.57,416.8c-4.16,4.16-10.93,4.16-15.1,0-4.16-4.16-4.16-10.93,0-15.1,4.16-4.16,10.93-4.16,15.1,0,4.16,4.16,4.16,10.93,0,15.1Z"/>
      </g>
    </g>
  </g>
</svg>