<?xml version="1.0" encoding="UTF-8"?>
<svg xmlns="http://www.w3.org/2000/svg" viewBox="0 0 578.27 434.78">
  <defs>
    <style>
      .cls-1 {
        fill: #b4c3d8;
      }

      .cls-1, .cls-2, .cls-3, .cls-4 {
        mix-blend-mode: multiply;
      }

      .cls-5 {
        fill: #d4dde9;
      }

      .cls-6 {
        fill: #ff5e3f;
      }

      .cls-7, .cls-8 {
        fill: #fff;
      }

      .cls-9 {
        fill: #4ca9ff;
      }

      .cls-10 {
        fill: #5c7daa;
      }

      .cls-8 {
        font-family: Quicksand-Bold, 'Quicksand Bold';
        font-size: 15.82px;
        font-weight: 700;
      }

      .cls-11 {
        fill: #7f99bd;
      }

      .cls-12 {
        fill: #59afff;
      }

      .cls-13 {
        isolation: isolate;
      }

      .cls-14 {
        fill: #6987b1;
      }

      .cls-2, .cls-15 {
        fill: #d9edff;
      }

      .cls-16 {
        fill: #04377d;
      }

      .cls-17 {
        fill: #f5f7fa;
      }

      .cls-18 {
        fill: #d9e1eb;
      }

      .cls-19 {
        fill: #2a5590;
      }

      .cls-20 {
        fill: #708db5;
      }

      .cls-21 {
        fill: #ff9d8a;
      }

      .cls-22 {
        fill: #7591b7;
      }

      .cls-23 {
        fill: #8ea5c4;
      }

      .cls-24 {
        fill: #cce6ff;
      }

      .cls-25 {
        fill: #0084ff;
      }

      .cls-26 {
        fill: #43699d;
      }

      .cls-4 {
        opacity: .43;
      }

      .cls-27 {
        fill: #54adff;
      }
    </style>
  </defs>
  <g class="cls-13">
    <g id="Layer_2" data-name="Layer 2">
      <g id="Layer_1-2" data-name="Layer 1">
        <g class="cls-4">
          <path class="cls-15" d="M99.09,411.86S27.08,360.59,6.35,273.3C-14.38,186.02,17.26,80.19,77.27,26.72c60.01-53.46,168.02-17.46,216.03,27.28l48.01,44.73s45.82,25.09,105.83,22.91c60.01-2.18,113.47,79.65,127.65,144.02,14.18,64.37-19.64,149.47-19.64,149.47l-456.06-3.27Z"/>
          <path class="cls-2" d="M66.36,424.96s-50.19-27.28-63.28-90.56c-13.09-63.28,43.64-121.11,49.1-152.75,5.46-31.64-6.55-70.92,43.64-101.47,50.19-30.55,139.65-19.64,173.48-27.28,33.82-7.64,73.1-60.01,140.75-48.01,67.65,12,133.11,48.01,136.38,126.56,3.27,78.56-21.82,80.74,3.27,123.29,25.09,42.55,34.91,72.01,22.91,115.65-12,43.64-37.1,55.64-37.1,55.64l-469.15-1.09Z"/>
          <path class="cls-2" d="M171.16,410.77c-3.12-3.27-48.91-94.92,2.08-178.93,50.99-84.01,179-74.19,229.99-41.46,50.99,32.73,75.97,75.28,81.17,120.02,5.2,44.73-29.14,114.56-29.14,114.56l-284.1-14.18Z"/>
          <g>
            <g>
              <rect class="cls-9" x="464.78" y="213.93" width="72.01" height="42.55" rx="5" ry="5"/>
              <polygon class="cls-9" points="500.78 273.12 510.1 251.03 491.46 251.03 500.78 273.12"/>
            </g>
            <g>
              <g>
                <polygon class="cls-16" points="500.56 227.9 517.4 227.9 517.4 230.36 525.65 225.6 517.4 220.84 517.4 223.31 500.56 223.31 500.56 227.9"/>
                <polygon class="cls-7" points="525.65 237.58 508.81 237.58 508.81 235.12 500.56 239.88 508.81 244.64 508.81 242.17 525.65 242.17 525.65 237.58"/>
              </g>
              <g>
                <path class="cls-16" d="M490.22,241.91l-.8.29s-2.5-2.85-3.8-5.96c-1.3-3.11-1.34-6.9-1.34-6.9l.59-.24-3.56-8.52c-.63.5-1.24,1.13-1.73,1.96-2.02,3.41-1.82,8.63.21,13.74s4.19,9.66,8.15,12.52c2.33,1.69,4.33,1.99,5.89,1.74l-3.6-8.62Z"/>
                <path class="cls-16" d="M492.78,240.91l-1.11.4,3.65,8.72c.41-.13.78-.3,1.1-.48.94-.52,1.35-1.65.96-2.65l-1.9-4.8c-.42-1.07-1.62-1.6-2.69-1.21Z"/>
                <path class="cls-16" d="M484.09,219.08c-.45.16-.94.38-1.43.67l3.64,8.7,1.22-.51c1.06-.44,1.58-1.65,1.16-2.72l-1.91-4.91c-.42-1.07-1.6-1.62-2.68-1.23Z"/>
              </g>
            </g>
          </g>
          <path class="cls-25" d="M154.15,396.04v-98.19s-1.09-26.46,12.82-34.1c13.91-7.64,72.55-3.55,72.55-3.55v135.84h-85.37Z"/>
          <g>
            <path class="cls-21" d="M257.84,168.29s-3.55,29.73-4.91,32.19l-1.36,2.45-6.82,4.64s13.09,18.55,29.19,21.55c16.09,3,14.73-6.55,14.73-6.55l-2.45-5.18,3.27-28.37s-29.19-13.37-31.64-20.73Z"/>
            <path class="cls-7" d="M236.29,210.02l10.64-4.64s6.82,11.18,22.64,17.73c15.82,6.55,16.09,2.73,16.91,0,.82-2.73-.27-5.73-.27-5.73l1.17-9.55,6.33,2.11,21.96,177.65-56.46,2.73-22.91-180.3Z"/>
            <path class="cls-16" d="M288.39,208.02s3.82,8.82,7.36,29.55,6.82,55.64,7.64,79.65c.82,24,1.36,78.83,1.36,78.83h71.19c.82,0,5.73-27,5.73-27,0,0-31.09-26.64-32.73-31-1.09-2.91-.55-56.83-5.18-81.65-4.64-24.82-10.64-29.82-23.18-36-12.97-6.39-32.19-12.37-32.19-12.37Z"/>
            <path class="cls-22" d="M325.49,364.79c-.36,0-.66-.29-.66-.66,0-1.95-.35-29.66-.68-56.45-.34-26.8-.68-54.51-.68-56.47,0-.36.29-.66.66-.66s.66.29.66.66c0,1.95.35,29.66.68,56.45.34,26.8.68,54.51.68,56.47,0,.36-.29.66-.66.66Z"/>
            <path class="cls-16" d="M183.65,358.13l-.55,37.91h82.92s3.55-32.19,2.18-35.19c-1.36-3-84.56-2.73-84.56-2.73Z"/>
            <g class="cls-3">
              <path class="cls-11" d="M275.93,199.66c3.38,2.72,8,4.91,11.6,6.23l1.95-16.87s-21.92-10.04-29.36-17.51c1.55,8.49,5.38,19.74,15.81,28.15Z"/>
            </g>
            <path class="cls-21" d="M315.12,112.92s5.73,9.82,6.82,21.82c1.09,12,0,42.82-9.82,55.92-9.82,13.09-30.28,9.27-39.55,1.36-8.51-7.26-16.91-15.27-19.09-31.09-2.18-15.82,4.64-45.82,24-52.1,19.37-6.27,37.64,4.09,37.64,4.09Z"/>
            <g>
              <path class="cls-21" d="M339.73,378.9s-.96,0-2.43-.04c-.34-.01-.73,0-1.12-.01-1.41-.04-3.12-.08-4.85-.13-.38-.01-.78-.03-1.16-.04-1.71-.04-3.18.17-4.55.09h-.04c-.29-.01-.71.03-1.05.04-.17.01-.33.03-.43.01-.79-.15-.95-.33-1.81-.71-1.11-.5-16.1-3.85-28.29-3.77-12.18.05-23.11.88-24.89-.61-1.79-1.52-2.87-16.82,7.53-17.82l12.79,4.85s29.2-3.47,39.91,4.43c10.73,7.9,10.4,13.71,10.4,13.71Z"/>
              <path class="cls-16" d="M325.58,378.76c-.29-.01-.71.03-1.05.04-.26-.42-.82-1.19-1.12-1.5-3.3-3.36-11.26-5.54-14.15-6.24-.26-.07-.44-.33-.37-.59.05-.26.33-.42.61-.37,4.21,1.02,13.13,3.61,15.66,7.87.08.12.29.53.42.79Z"/>
              <path class="cls-16" d="M331.33,378.71c-.38,0-.78-.02-1.16-.04-3.6-6.56-9.49-8.45-16.76-10.79l-.43-.14c-.25-.09-.4-.37-.31-.63.09-.25.35-.4.63-.31l.42.14c7.69,2.47,13.88,4.45,17.62,11.77Z"/>
              <path class="cls-16" d="M337.3,378.86c-.34,0-.73,0-1.12-.01-2.18-4.59-9.41-12.27-18.96-14.06-.28-.05-.45-.3-.41-.58.06-.26.31-.44.58-.39,9.85,1.85,17.79,9.89,19.92,15.04Z"/>
            </g>
            <path class="cls-16" d="M260.02,147.42s6-2.86,10.23-10.91c4.23-8.05,3.68-15.27,3.68-15.27,0,0,7.64-1.23,19.09,2.18,11.46,3.41,25.09,8.05,36.55,1.5,11.46-6.55,11.46-17.05,5.86-21.41-6.26-4.89-18.68-1.91-18.68-1.91,0,0,4.77-4.64,2.18-7.36-2.59-2.73-12,.82-12,.82,0,0-11.46-9.14-33.14-8.05-21.68,1.09-32.05,16.23-33.28,33.14-1.23,16.91,4.91,33.82,4.91,33.82l14.59-6.55Z"/>
            <g class="cls-3">
              <path class="cls-11" d="M304.02,151.52c-1.23,3.03-1.2,6.55-1.51,9.76-.24,2.5-.7,5.42,1.59,7.11,1.09.81,6.27,2.98,3.61,4.75-1.02.67-2.72.49-3.87.43-.8-.04-1.6-.07-2.4-.13-.86-.06-1.69-.32-2.55-.33-.5,0-.66.67-.25.92,1.38.86,3.4,1.13,5,1.19,1.6.06,2.69-.01,4.14-.73.89-.44,1.75-1.07,1.89-2.12.16-1.19-.73-2.26-1.63-2.92-1.03-.76-2.3-1.12-3.34-1.87-1.44-1.03-1.33-2.78-1.22-4.39.24-3.88,1.14-7.69,1.48-11.55.05-.59-.76-.59-.95-.13h0Z"/>
            </g>
            <path class="cls-16" d="M315.17,160.59c-.41,2.3-2.08,3.93-3.74,3.63-1.66-.29-2.67-2.39-2.26-4.69.41-2.3,2.08-3.93,3.74-3.63,1.66.29,2.67,2.39,2.26,4.69Z"/>
            <path class="cls-16" d="M294.29,158.77c-.37,2.48-2.12,4.28-3.9,4.01-1.79-.27-2.94-2.49-2.57-4.97.37-2.48,2.12-4.28,3.9-4.01,1.79.27,2.94,2.49,2.57,4.97Z"/>
            <path class="cls-16" d="M310.31,151.11c1.27.22,2.56,0,3.85.09.31.02.61.07.92.1.22.02-.41-.06-.1-.01.07.01.13.02.2.03.16.03.32.06.48.1.27.07.54.17.81.23.25.05.53.11.78.1.14-.02.28-.04.42-.06-.09.02-.18.03-.26.05,0,.03.48-.05.52-.06.73-.17,1.18-1.02.98-1.72-.06-.2-.15-.39-.28-.56-.05-.07-.11-.14-.17-.21.05.06.1.12.15.18-.05-.08-.11-.15-.17-.22-.07-.12-.17-.22-.29-.29-.1-.08-.2-.16-.31-.23-.34-.24-.78-.37-1.18-.48-.76-.2-1.56-.3-2.34-.3-.78,0-1.55.08-2.32.18-.68.09-1.44.32-1.99.74-.43.32-.69.73-.61,1.28.06.46.43.99.92,1.07h0Z"/>
            <path class="cls-16" d="M295.76,147.46c-.17-.1-.35-.19-.53-.28-.16-.07-.58-.29-.26-.12-.12-.06-.23-.13-.35-.19-.53-.27-1.08-.44-1.65-.59-1.24-.32-2.55-.4-3.83-.26-1.36.14-2.61.47-3.78,1.18-.17.1-.34.2-.48.34-.09.12-.19.24-.28.36.03-.04.05-.08.08-.12-.36.25-.58.67-.57,1.11,0,.42.22.78.59.98.45.25.87.13,1.32.01h-.69c.38.06.65.07,1.03-.01.01,0,.37-.09.13-.04-.22.05.37-.05.44-.05.08-.01.49-.05.05,0,.08,0,.16-.02.24-.03.21-.03.41-.05.62-.07.9-.07,1.8-.11,2.7-.14.84-.03,1.69-.03,2.53,0,.36.02.72.03,1.07.04.2,0,.12.04-.02,0,.07.02.15.04.22.06.15.04.3.09.44.14.58.22,1.28-.2,1.49-.73.23-.58.04-1.25-.52-1.58h0Z"/>
            <path class="cls-16" d="M302.23,185.38c1.25-2.52,3.53-4.36,6.16-5.55-2.29-.23-13.08-1.23-15.8.31-3.05,1.73.56,8.69,6.87,9.03.66.04,1.26-.02,1.84-.11.05-1.27.34-2.53.93-3.7Z"/>
            <path class="cls-18" d="M252.39,170.74s1.09,4.23,7.36,9.14c6.27,4.91,15.37,8.5,15.37,8.5l.73-3.18s-9.41-4.09-13.77-8.59c-4.36-4.5-4.91-6.96-4.91-6.96l-4.77,1.09Z"/>
            <path class="cls-16" d="M276.93,182.84c5.05-.23,7.87,3.76,8.22,6.34.35,2.58-2.07,5.48-7.75,2.94-7.05-3.16-5.52-9.04-.47-9.28Z"/>
            <path class="cls-18" d="M256.34,139.51s2.18-15.68,12.68-26.32c20.05-20.32,37.1-19.09,37.1-19.09,0,0-.14-2.86-6.55-5.05-6.02-2.05-8.73-.95-8.73-.95,0,0-16.5,1.36-30.41,16.77-13.91,15.41-15.41,35.05-15.41,35.05l11.32-.41Z"/>
            <g>
              <path class="cls-7" d="M254.84,137.6c-13.13-2.23-20.46,8.05-21,18.41-.55,10.37,6.99,18.24,17.05,17.46,22.64-1.77,20.05-33.14,3.96-35.87Z"/>
              <path class="cls-20" d="M248.3,163.4c-3.47,0-6.4-1.74-8.07-4.81-1.79-3.29-1.64-7.33.38-10.31.15-.22.46-.28.69-.13.23.15.28.46.13.69-1.82,2.67-1.95,6.31-.33,9.28,1.54,2.81,4.25,4.41,7.46,4.29,3-.08,5.54-1.45,7.16-3.87,1.85-2.75,2.27-6.56,1.08-9.69-1.18-3.11-4.41-5.22-7.36-4.84-.27.04-.52-.15-.55-.42-.04-.27.15-.52.42-.55,3.44-.46,7.05,1.89,8.41,5.47,1.3,3.42.83,7.58-1.18,10.59-1.8,2.69-4.63,4.21-7.96,4.3-.09,0-.19,0-.28,0Z"/>
            </g>
            <path class="cls-16" d="M238.75,206.2s-39.82,9.82-53.73,25.64c-13.91,15.82-20.46,93.83-20.73,108.29-.27,14.46,9.82,20.46,15.82,24.55,6,4.09,32.46,11.46,53.73,12.55,21.28,1.09,41.46,0,41.46,0,0,0-.07-4.64,3.2-11.46,3.04-6.32,6.89-7.64,6.89-7.64l-18.28-6.55s-3.2-57.34-8.18-85.1c-5.73-31.91-20.18-60.28-20.18-60.28Z"/>
            <path class="cls-22" d="M304.76,342.42c-.09,0-.18-.02-.27-.06-.33-.15-.48-.54-.34-.87,3.73-8.42,7.6-24.95,9.77-36.54l.18-.94c.66-3.41,1.48-7.65-.16-10.58-.83-1.49-2.72-4.73-4.53-7.85-1.88-3.23-3.66-6.29-4.15-7.2-.96-1.78,2.06-6.54,6.44-13.06,1.18-1.76,2.2-3.29,2.8-4.32,1.56-2.7.52-5.17-.68-8.04l-.41-.99c-1.09-2.68-2.33-5.36-3.53-7.95-.49-1.06-.98-2.12-1.46-3.19-.64-1.41-1.28-2.84-1.93-4.29-3.85-8.59-7.84-17.48-12.94-26.06-.19-.31-.08-.72.23-.9.31-.19.72-.08.9.23,5.14,8.65,9.14,17.57,13.01,26.19.65,1.45,1.29,2.88,1.93,4.29.48,1.06.97,2.12,1.46,3.18,1.2,2.61,2.45,5.3,3.55,8.01l.4.97c1.23,2.92,2.49,5.94.61,9.21-.62,1.07-1.65,2.61-2.85,4.39-2.28,3.4-7.03,10.48-6.38,11.7.48.89,2.25,3.94,4.13,7.16,1.82,3.12,3.71,6.37,4.54,7.87,1.87,3.35,1,7.85.3,11.47l-.18.93c-.79,4.22-4.99,25.84-9.86,36.83-.11.25-.35.39-.6.39Z"/>
            <path class="cls-22" d="M265.89,344.74c-.17,0-.34-.06-.47-.19-3.1-3.12-18.05-29.01-19.16-33.87-.61-2.67.92-9.42,2.4-15.96,1.15-5.06,2.33-10.3,1.99-11.72-.5-2.12-4.33-5.24-8.02-8.26-4.47-3.65-9.08-7.42-9.98-10.82-1.02-3.86-.15-28.04.43-44.03.21-5.75.37-10.3.37-11.91,0-.36.29-.66.66-.66h0c.36,0,.66.29.66.66,0,1.64-.16,6.2-.37,11.96-.54,14.95-1.44,39.97-.47,43.65.79,2.98,5.43,6.78,9.54,10.13,4.04,3.3,7.86,6.42,8.47,8.98.41,1.71-.7,6.63-1.99,12.31-1.38,6.09-2.94,13-2.4,15.37,1.09,4.77,15.77,30.17,18.81,33.24.26.26.25.68,0,.93-.13.13-.3.19-.46.19Z"/>
            <path class="cls-22" d="M212.29,333.42s-.06,0-.09,0c-.36-.05-.61-.38-.56-.75.48-3.43,8.05-71.72,8.4-76.95.02-.36.34-.65.7-.61.36.02.64.34.61.7-.35,5.24-7.92,73.61-8.41,77.05-.05.33-.33.57-.65.57Z"/>
            <path class="cls-22" d="M266.57,351.97c-.08,0-.17-.02-.25-.05-1.68-.68-9.08-3.18-18.46-6.34-18.93-6.38-44.85-15.13-49.78-17.69-.32-.17-.45-.57-.28-.89.17-.32.56-.45.89-.28,4.84,2.51,31.77,11.6,49.6,17.61,9.4,3.17,16.82,5.67,18.54,6.37.34.14.5.52.36.86-.1.26-.35.41-.61.41Z"/>
            <path class="cls-22" d="M257.47,379.16c-16.66,0-48.96-3-73.49-11.68-.34-.12-.52-.5-.4-.84.12-.34.5-.52.84-.4,30.99,10.96,74.35,12.84,82.42,11.02.36-.08.71.15.79.5.08.36-.14.71-.5.79-1.75.39-5.12.61-9.66.61Z"/>
          </g>
          <g>
            <g>
              <g>
                <path class="cls-12" d="M66.79,215.4c5.17,4.55,11.72,7.47,16.26,12.72,1.79,2.07,3.39,4.27,5.05,6.44,1.21,1.58,4.43,4.2,4.95,6.18.23.87.18-.31-.05-1.19,0-.04-.03-.07-.04-.11-.45-4.02-.78-8.06-.92-12.1-.14-4.03.11-8.08-.14-12.11-.36-5.68-2.13-11.18-6.77-14.74-2.27-1.74-5.19-2.8-7.27-4.73-1.98-1.83-1.19-3.93-.02-5.98,1.09-1.91,2.41-3.79,2.83-5.99.48-2.5-.46-5.08-1.73-7.21-2.7-4.53-8.69-9.59-14.36-8.91-4.73.57-5.27,6.02-5.2,9.83.07,3.7.43,7.38.47,11.08.04,3.8-.61,7.53-.66,11.31-.09,6.43,2.88,11.34,7.61,15.5Z"/>
                <path class="cls-12" d="M114.84,274.44c1.44-3.43,3.09-6.65,5.12-9.77,2.79-4.29,5.88-8.46,7.75-13.26,1.91-4.9,1.63-10.14,1.82-15.3.14-3.79,1.26-7.57.96-11.37-.15-1.82-1.2-4.77-3.55-4.47-1.84.23-2.93,2.51-3.63,3.96-1.23,2.53-2.08,5.24-3,7.89-.36,1.04-.7,2.1-1.15,3.1-.26.58-1.1,2.01-1.89,1.81-1.34-.33-.12-5.8.08-6.77,1-4.87,2.51-9.39,2.72-14.4.3-7.26-.26-15.91-7.36-19.88-1.86-1.04-4.21-1.66-5.97-.1-1.74,1.53-2.23,4.19-2.49,6.37-.79,6.71.79,13.06,2.93,19.37,1.77,5.21,3.89,10.59,4.04,16.16.15,5.36-2.64,10.12-3.95,15.18-2.09,8.07-1.66,12.35-1.67,14.97-.01,3.28.11,6.52.35,9.78.22,3,.48,6,.85,8.99.07.6.14,1.24.22,1.87-1.15-2.78-1.56-5.96-2.51-8.75-1.7-4.96-3.67-9.82-5.3-14.81-1.35-4.12-2.62-8.27-4.39-12.23-1.67-3.71-3.68-7.64-6.79-10.37-1.88-1.65-4.16-2.61-6.67-2.59-1.61.01-3.05.57-4.59.98-1.89.5-3.38.33-4.93-.87-5.09-3.91-6.64-10.93-10.41-15.88-2.81-3.7-9.48-9.99-14.38-5.96-2.6,2.14-3.32,6.27-3.18,9.43.17,3.97,1.91,7.61,3.97,10.93,2.2,3.53,5.04,6.7,7.06,10.33,1.19,2.15,1.38,4.2,1.19,6.62-.18,2.28-.38,4.49.4,6.69,2.33,6.61,9.62,5.68,15.29,5.86,3.97.12,8.22.71,11.98,1.98,4.35,1.47,7.18,4.3,8.74,8.6,1.13,3.11,1.73,6.65,3.85,9.3,1,1.24,2.32,2.16,3.77,2.8,2.21.98,8.95,1.4,9,.79.17-2.06,1.14-4.24,1.76-6.19,1.15-3.67,2.5-7.24,3.98-10.78Z"/>
                <path class="cls-12" d="M146.13,273.19c-.59-3.78-.47-7.94-2.26-11.4-.13-.25-.47-.31-.7-.18-1.28.71-1.33,2.78-1.44,4.05-.17,2.1-.04,4.21-.3,6.31-.45,3.69-1.31,7.49-2.63,10.96-1.5,3.93-4.23,6.16-8.2,7.39-2.55.79-5.05,1.47-7.18,3.17-1.91,1.51-3.23,3.6-4.21,5.81-2.65,5.94-3.91,12.58-5.14,18.93-.83,4.27-1.5,8.57-2.54,12.8-1.04,4.23-2.15,8.44-2.75,12.76-.1.22-.21.43-.3.65-.27.65.74,1,1.09.46,4.1-6.31,9.09-11.97,15.89-15.44,3.07-1.57,7.16-1.89,9.72-4.36,1.95-1.87,2.22-4.73,1.93-7.28-.38-3.35-1.99-6.11-3.66-8.96-.92-1.57-2-3.25-1.63-5.15.35-1.8,1.84-3.12,3.33-4.04,2.83-1.76,6.14-2.55,8.46-5.08,2.15-2.35,3.35-5.28,3.58-8.45.32-4.22-.41-8.75-1.06-12.92Z"/>
                <path class="cls-12" d="M90.27,294.96c-3.61-4.66-7.98-8.67-12.89-11.93-2.62-1.74-8.8-5.17-10.05-.04-.73,3.01,2.21,5.97,4.15,7.85,2.91,2.83,6.28,5.28,8.73,8.54-3.04.97-6.22,1.16-8.86,3.26-3.13,2.49-4.53,7.3-1.43,10.35,1.51,1.49,3.52,2.4,5.4,3.31,2.45,1.18,4.94,2.26,7.45,3.31,5.42,2.26,10.9,4.56,15.52,8.26,4.71,3.78,9.13,10.16,9.51,16.32.04.59-.19.05.16-.22.19.17.84-.14.83-.48-.1-9.14-1.74-17.85-5.47-26.22-3.46-7.76-7.83-15.59-13.05-22.31Z"/>
              </g>
              <path class="cls-19" d="M77.79,209.86c1.99,4.14,4.08,8.18,6.29,12.22,2.13,3.89,4.26,7.74,5.85,11.89,1.96,5.1,4.02,10.13,6.1,15.19,2.16,5.26,4.09,10.61,5.63,16.08,3.02,10.68,5.26,21.67,6.37,32.71.56,5.61.82,11.26.67,16.91-.12,4.41-.62,8.77-1.03,13.16-.43,4.56-.74,9.18-.36,13.76.32,3.83.93,8.38,3.9,11.11.58.53,1.4-.13,1.07-.82-3.53-7.24-3.33-15.13-2.66-22.99.37-4.33.89-8.65,1.04-13,.19-5.54-.03-11.08-.55-16.6-1.02-10.84-3.18-21.55-5.99-32.06-1.44-5.39-3.22-10.67-5.27-15.86-2.05-5.2-4.43-10.26-6.42-15.48-3.6-9.45-9.09-17.83-13.94-26.63-.25-.46-.92-.06-.69.41h0Z"/>
              <path class="cls-19" d="M108.2,287.12c.57-6.88,1.18-13.51,3.5-20.07,1.08-3.06,2.39-6.04,3.44-9.11.86-2.54,2.15-6.02,1.49-8.72-.07-.3-.51-.29-.6,0-.44,1.54-.4,3.23-.72,4.81-.31,1.54-.73,3.05-1.21,4.55-1.02,3.18-2.35,6.23-3.5,9.36-2.23,6.05-3.37,12.74-2.88,19.19.02.31.45.3.47,0h0Z"/>
              <path class="cls-19" d="M68.32,247.58c2.73,6.6,10.94,6.98,16.92,8.46,4.27,1.06,7.42,3.9,9.69,7.6,2.48,4.05,4.15,8.8,5.53,13.31.02.05.09.03.08-.02-1.67-7.91-4.07-17.43-12.22-21.11-6.53-2.95-15.14-1.47-19.32-8.52-.21-.35-.84-.11-.68.29h0Z"/>
              <path class="cls-19" d="M103.88,286.08c.32.44.62.9.96,1.33.17.21.33.41.54.59.21.18.47.39.76.39.12,0,.21-.14.14-.25-.13-.22-.38-.35-.57-.52-.2-.17-.4-.34-.58-.52-.38-.36-.73-.75-1.1-1.12-.07-.07-.21.03-.15.11h0Z"/>
              <path class="cls-19" d="M86.8,307.01c4.71,3.87,9.06,8.44,12.51,13.46,1.65,2.4,3.17,4.93,4.56,7.49,1.51,2.8,2.5,5.75,3.68,8.69.09.22.5.23.47-.06-.65-6.2-4.58-11.52-7.73-16.69-1.64-2.68-3.67-4.84-5.85-7.08-2.26-2.31-4.56-4.49-7.2-6.36-.32-.23-.73.3-.42.55h0Z"/>
              <path class="cls-19" d="M124.31,299.7c-2.27,1.29-2.34,4.87-2.39,7.16-.09,4.4,1,8.53-.93,12.72-1.74,3.78-4.53,6.94-6.72,10.46-2.05,3.29-4.07,7.5-4.03,11.46,0,.23.35.36.46.12.83-1.8,1.12-3.84,1.71-5.72.66-2.12,1.59-4.04,2.8-5.9,2.11-3.26,4.69-6.24,6.4-9.75,1.8-3.7,1.54-7.36,1.42-11.37-.08-2.56-.33-6.66,1.73-8.57.32-.3-.09-.81-.46-.6h0Z"/>
            </g>
            <path class="cls-7" d="M109.14,341.9c-9.14-.13-26.55-.23-26.55-.23l4.31,31.99c.97,7.2,7.11,12.57,14.37,12.57h15.74c7.26,0,13.4-5.37,14.37-12.57l4.31-31.99s-17.41.1-26.55.23Z"/>
          </g>
          <g>
            <g>
              <polygon class="cls-17" points="550.93 283.12 498.78 386.41 346.76 387.5 393.68 281.67 550.93 283.12"/>
              <path class="cls-5" d="M245.87,386.86l.03-8.27h98.41l45.28-99.29h157.38l3.96,3.82h-153.75l-47.05,103.65s-104.26-.19-104.26.08Z"/>
              <path class="cls-5" d="M471.99,340.12c-1.72,5.15-11.04,9.13-20.82,8.89s-16.32-4.62-14.6-9.77c1.72-5.15,11.04-9.13,20.82-8.89,9.78.24,16.32,4.62,14.6,9.77Z"/>
            </g>
            <path class="cls-7" d="M350.13,387.43c-.09,0-.18-.02-.27-.06-.33-.15-.48-.54-.33-.87l47.23-104.04h154.17c.36,0,.66.29.66.66s-.29.66-.66.66h-153.32l-46.88,103.26c-.11.24-.35.39-.6.39Z"/>
          </g>
          <g>
            <g>
              <rect class="cls-26" x="58.18" y="394.68" width="180.84" height="40.1"/>
              <rect class="cls-14" x="237.99" y="394.68" width="325.37" height="40.1"/>
            </g>
            <polygon class="cls-1" points="239.02 394.68 237.99 394.68 58.18 394.68 58.18 402.05 237.99 402.05 239.02 402.05 563.36 402.05 563.36 394.68 239.02 394.68"/>
            <rect class="cls-10" x="49.45" y="386.77" width="197.48" height="9.82"/>
            <rect class="cls-23" x="245.9" y="386.77" width="325.37" height="9.82"/>
          </g>
          <g>
            <rect class="cls-7" x="122.37" y="130.22" width="78.15" height="46.18" rx="5.43" ry="5.43"/>
            <polygon class="cls-7" points="218.71 153.31 194.73 143.19 194.73 163.43 218.71 153.31"/>
            <g>
              <circle class="cls-16" cx="146.3" cy="153.31" r="4.42"/>
              <circle class="cls-16" cx="161.44" cy="153.31" r="4.42"/>
              <circle class="cls-16" cx="176.59" cy="153.31" r="4.42"/>
            </g>
          </g>
          <g>
            <path class="cls-9" d="M518.38,32.18h-147.38c-9.47,0-17.14,7.67-17.14,17.14v69.92c0,9.47,7.67,17.14,17.14,17.14h13.21c.37,6.34-.54,15.77-5.83,27.82,17.03-7.85,26.83-19.65,31.95-27.82h108.05c9.47,0,17.14-7.67,17.14-17.14V49.32c0-9.47-7.67-17.14-17.14-17.14Z"/>
            <path class="cls-7" d="M455.5,65.5h-73.1c-2.01,0-3.64-1.63-3.64-3.64h0c0-2.01,1.63-3.64,3.64-3.64h73.1c2.01,0,3.64,1.63,3.64,3.64h0c0,2.01-1.63,3.64-3.64,3.64Z"/>
            <path class="cls-24" d="M507.92,86.69h-126.93c-1.23,0-2.23-1-2.23-2.23h0c0-1.23,1-2.23,2.23-2.23h126.93c1.23,0,2.23,1,2.23,2.23h0c0,1.23-1,2.23-2.23,2.23Z"/>
            <path class="cls-24" d="M507.92,99.05h-126.93c-1.23,0-2.23-1-2.23-2.23h0c0-1.23,1-2.23,2.23-2.23h126.93c1.23,0,2.23,1,2.23,2.23h0c0,1.23-1,2.23-2.23,2.23Z"/>
            <path class="cls-24" d="M480.23,112.24h-99.24c-1.23,0-2.23-1-2.23-2.23h0c0-1.23,1-2.23,2.23-2.23h99.24c1.23,0,2.23,1,2.23,2.23h0c0,1.23-1,2.23-2.23,2.23Z"/>
            <path class="cls-7" d="M506.92,65.5h-34.87c-2.01,0-3.64-1.63-3.64-3.64h0c0-2.01,1.63-3.64,3.64-3.64h34.87c2.01,0,3.64,1.63,3.64,3.64h0c0,2.01-1.63,3.64-3.64,3.64Z"/>
          </g>
          <g>
            <rect class="cls-7" x="376.8" y="193.97" width="44.87" height="32.32" rx="2" ry="2"/>
            <g>
              <path class="cls-10" d="M399.51,214.96c-.22,0-.45-.08-.63-.23l-21.55-17.8c-.42-.35-.48-.97-.13-1.39.35-.42.97-.48,1.39-.13l20.9,17.26,20.37-17.72c.41-.36,1.04-.31,1.39.1.36.41.32,1.04-.1,1.39l-21,18.28c-.19.16-.42.24-.65.24Z"/>
              <path class="cls-10" d="M377.96,225.56c-.24,0-.49-.09-.68-.27-.4-.38-.41-1-.03-1.4l15.07-15.84c.37-.4,1-.41,1.4-.03.4.38.41,1,.03,1.4l-15.07,15.84c-.19.2-.45.31-.72.31Z"/>
              <path class="cls-10" d="M420.51,224.98c-.25,0-.51-.1-.7-.29l-15.01-15.05c-.38-.39-.38-1.01,0-1.4.39-.39,1.01-.38,1.4,0l15.01,15.05c.38.39.38,1.01,0,1.4-.19.19-.45.29-.7.29Z"/>
            </g>
            <g>
              <circle class="cls-6" cx="423.73" cy="192.97" r="13.23"/>
              <text class="cls-8" transform="translate(414.43 198.56)"><tspan x="0" y="0">85</tspan></text>
            </g>
          </g>
          <g>
            <rect class="cls-16" x="474.04" y="165.46" width="87.83" height="22.64" rx="4" ry="4"/>
            <path class="cls-7" d="M484.89,182.72c-.35,0-.63-.12-.83-.37-.21-.25-.3-.56-.28-.93l.33-2.93c.02-.07.01-.12-.04-.15-.05-.02-.11-.01-.19.04l-2.41,1.74c-.3.22-.61.3-.93.24-.32-.06-.58-.25-.78-.57-.22-.4-.27-.74-.13-1.04s.36-.51.69-.63l2.71-1.22c.07-.02.11-.06.11-.11s-.04-.09-.11-.11l-2.71-1.22c-.35-.15-.57-.38-.67-.7-.1-.32-.06-.64.11-.96.2-.32.46-.51.78-.58.32-.06.63,0,.93.2l2.41,1.78c.07.05.14.06.19.04.05-.02.06-.07.04-.15l-.33-2.93c-.03-.37.07-.68.3-.93.22-.25.52-.37.89-.37.35,0,.63.12.85.37.22.25.31.56.26.93l-.33,2.93c-.03.07-.01.12.04.15.05.02.11.01.19-.04l2.41-1.74c.3-.22.61-.3.95-.24.33.06.59.25.76.58.22.4.27.74.13,1.04-.14.3-.36.51-.69.63l-2.71,1.22c-.07.03-.11.06-.11.11s.04.09.11.11l2.71,1.22c.35.15.58.38.69.7.11.32.07.64-.13.96-.17.32-.43.51-.76.57-.33.06-.65,0-.95-.2l-2.41-1.78c-.07-.05-.14-.06-.19-.04-.05.03-.06.07-.04.15l.33,2.93c.05.37-.04.68-.28.93-.24.25-.54.37-.91.37Z"/>
            <path class="cls-7" d="M500.87,182.72c-.35,0-.63-.12-.83-.37-.21-.25-.3-.56-.28-.93l.33-2.93c.02-.07.01-.12-.04-.15-.05-.02-.11-.01-.19.04l-2.41,1.74c-.3.22-.61.3-.93.24-.32-.06-.58-.25-.78-.57-.22-.4-.27-.74-.13-1.04s.37-.51.69-.63l2.71-1.22c.07-.02.11-.06.11-.11s-.04-.09-.11-.11l-2.71-1.22c-.35-.15-.57-.38-.67-.7-.1-.32-.06-.64.11-.96.2-.32.46-.51.78-.58.32-.06.63,0,.93.2l2.41,1.78c.07.05.14.06.19.04.05-.02.06-.07.04-.15l-.33-2.93c-.03-.37.07-.68.3-.93.22-.25.52-.37.89-.37.35,0,.63.12.85.37.22.25.31.56.26.93l-.33,2.93c-.03.07-.01.12.04.15.05.02.11.01.19-.04l2.41-1.74c.3-.22.61-.3.95-.24.33.06.59.25.76.58.22.4.27.74.13,1.04-.14.3-.37.51-.69.63l-2.71,1.22c-.07.03-.11.06-.11.11s.04.09.11.11l2.71,1.22c.35.15.58.38.69.7.11.32.07.64-.13.96-.17.32-.43.51-.76.57-.33.06-.65,0-.95-.2l-2.41-1.78c-.07-.05-.14-.06-.19-.04-.05.03-.06.07-.04.15l.33,2.93c.05.37-.04.68-.28.93-.24.25-.54.37-.91.37Z"/>
            <path class="cls-7" d="M516.86,182.72c-.35,0-.63-.12-.83-.37-.21-.25-.3-.56-.28-.93l.33-2.93c.02-.07.01-.12-.04-.15-.05-.02-.11-.01-.19.04l-2.41,1.74c-.3.22-.61.3-.93.24-.32-.06-.58-.25-.78-.57-.22-.4-.27-.74-.13-1.04s.36-.51.69-.63l2.71-1.22c.07-.02.11-.06.11-.11s-.04-.09-.11-.11l-2.71-1.22c-.35-.15-.57-.38-.67-.7-.1-.32-.06-.64.11-.96.2-.32.46-.51.78-.58.32-.06.63,0,.93.2l2.41,1.78c.07.05.14.06.19.04.05-.02.06-.07.04-.15l-.33-2.93c-.03-.37.07-.68.3-.93.22-.25.52-.37.89-.37.35,0,.63.12.85.37.22.25.31.56.26.93l-.33,2.93c-.03.07-.01.12.04.15.05.02.11.01.19-.04l2.41-1.74c.3-.22.61-.3.95-.24.33.06.59.25.76.58.22.4.27.74.13,1.04-.14.3-.36.51-.69.63l-2.71,1.22c-.07.03-.11.06-.11.11s.04.09.11.11l2.71,1.22c.35.15.58.38.69.7.11.32.07.64-.13.96-.17.32-.43.51-.76.57-.33.06-.65,0-.95-.2l-2.41-1.78c-.07-.05-.14-.06-.19-.04-.05.03-.06.07-.04.15l.33,2.93c.05.37-.04.68-.28.93-.24.25-.54.37-.91.37Z"/>
            <path class="cls-7" d="M532.84,182.72c-.35,0-.63-.12-.83-.37-.21-.25-.3-.56-.28-.93l.33-2.93c.02-.07.01-.12-.04-.15-.05-.02-.11-.01-.19.04l-2.41,1.74c-.3.22-.61.3-.93.24-.32-.06-.58-.25-.78-.57-.22-.4-.27-.74-.13-1.04.14-.3.37-.51.69-.63l2.71-1.22c.07-.02.11-.06.11-.11s-.04-.09-.11-.11l-2.71-1.22c-.35-.15-.57-.38-.67-.7-.1-.32-.06-.64.11-.96.2-.32.46-.51.78-.58.32-.06.63,0,.93.2l2.41,1.78c.07.05.14.06.19.04.05-.02.06-.07.04-.15l-.33-2.93c-.03-.37.07-.68.3-.93.22-.25.52-.37.89-.37.35,0,.63.12.85.37.22.25.31.56.26.93l-.33,2.93c-.03.07-.01.12.04.15.05.02.11.01.19-.04l2.41-1.74c.3-.22.61-.3.95-.24.33.06.59.25.76.58.22.4.27.74.13,1.04-.14.3-.37.51-.69.63l-2.71,1.22c-.07.03-.11.06-.11.11s.04.09.11.11l2.71,1.22c.35.15.58.38.69.7.11.32.07.64-.13.96-.17.32-.43.51-.76.57-.33.06-.65,0-.95-.2l-2.41-1.78c-.07-.05-.14-.06-.19-.04-.05.03-.06.07-.04.15l.33,2.93c.05.37-.04.68-.28.93-.24.25-.54.37-.91.37Z"/>
            <path class="cls-27" d="M548.83,182.72c-.35,0-.63-.12-.83-.37-.21-.25-.3-.56-.28-.93l.33-2.93c.02-.07.01-.12-.04-.15-.05-.02-.11-.01-.19.04l-2.41,1.74c-.3.22-.61.3-.93.24-.32-.06-.58-.25-.78-.57-.22-.4-.27-.74-.13-1.04s.37-.51.69-.63l2.71-1.22c.07-.02.11-.06.11-.11s-.04-.09-.11-.11l-2.71-1.22c-.35-.15-.57-.38-.67-.7-.1-.32-.06-.64.11-.96.2-.32.46-.51.78-.58.32-.06.63,0,.93.2l2.41,1.78c.07.05.14.06.19.04.05-.02.06-.07.04-.15l-.33-2.93c-.03-.37.07-.68.3-.93.22-.25.52-.37.89-.37.35,0,.63.12.85.37.22.25.31.56.26.93l-.33,2.93c-.03.07-.01.12.04.15.05.02.11.01.19-.04l2.41-1.74c.3-.22.61-.3.95-.24.33.06.59.25.76.58.22.4.27.74.13,1.04-.14.3-.37.51-.69.63l-2.71,1.22c-.07.03-.11.06-.11.11s.04.09.11.11l2.71,1.22c.35.15.58.38.69.7.11.32.07.64-.13.96-.17.32-.43.51-.76.57-.33.06-.65,0-.95-.2l-2.41-1.78c-.07-.05-.14-.06-.19-.04-.05.03-.06.07-.04.15l.33,2.93c.05.37-.04.68-.28.93-.24.25-.54.37-.91.37Z"/>
          </g>
        </g>
      </g>
    </g>
  </g>
</svg>