<?xml version="1.0" encoding="UTF-8"?>
<svg id="Layer_2" data-name="Layer 2" xmlns="http://www.w3.org/2000/svg" viewBox="0 0 144.94 126.13">
  <defs>
    <style>
      .cls-1 {
        fill: #f2f2f2;
      }
    </style>
  </defs>
  <g id="Layer_1-2" data-name="Layer 1">
    <g>
      <g>
        <path class="cls-1" d="M39.34,98.95c.64,3.67-.76,2.23-2.9,2.99-5.88,2.07-11.6,2.43-15.61,8.27,1.49,1.55,2.92,3.34,4.8,4.44,15.88,9.38,76.62,9.23,92.83.46,2.27-1.23,3.98-3.01,5.66-4.91-4.02-5.83-9.72-6.2-15.61-8.27-2.14-.75-3.54.68-2.9-2.99,11.65.36,32.22,9.83,13.26,19.21-18.93,9.36-73.85,9.37-92.78,0-19-9.4,1.58-18.96,13.26-19.21Z"/>
        <path class="cls-1" d="M72.47,126.13c-18.59,0-37.17-2.38-46.79-7.14-6.18-3.06-8.91-6.45-8.11-10.06.64-2.87,3.66-5.64,8.5-7.79,4.11-1.83,9.19-3.01,13.25-3.1l.79-.02.14.78c.24,1.36.28,2.4-.25,3.08-.49.62-1.21.66-1.85.7-.44.03-.9.05-1.4.23-1.3.46-2.59.83-3.84,1.2-4.27,1.24-7.98,2.32-10.88,6.13.14.15.29.31.43.46,1.12,1.21,2.28,2.46,3.64,3.27,7.14,4.22,24.7,6.87,45.83,6.91,20.66.03,38.76-2.49,46.1-6.46,1.95-1.05,3.51-2.6,4.92-4.16-2.9-3.83-6.63-4.91-10.91-6.15-1.24-.36-2.53-.73-3.83-1.19-.5-.18-.96-.2-1.4-.23-.64-.04-1.36-.08-1.85-.7-.53-.68-.49-1.72-.25-3.08l.14-.78.8.02c7.94.24,20.35,4.63,21.72,10.95.78,3.59-1.94,6.95-8.09,10-9.62,4.76-28.21,7.14-46.8,7.14ZM38.55,99.9c-9.39.47-18.3,5.46-19.19,9.42-.74,3.34,3.47,6.21,7.13,8.02,8.64,4.27,26.26,6.93,45.98,6.93,19.72,0,37.34-2.66,45.98-6.93,3.64-1.8,7.83-4.65,7.11-7.96-.85-3.92-9.75-8.92-19.17-9.47-.05.46-.03.69,0,.79.12.02.35.04.53.05.49.03,1.15.07,1.89.33,1.25.44,2.51.8,3.73,1.16,4.63,1.34,9,2.61,12.33,7.45l.41.59-.48.54c-1.65,1.86-3.46,3.79-5.91,5.11-9.12,4.93-29.91,6.68-46.51,6.68-.16,0-.32,0-.47,0-16.8-.03-37.9-1.93-46.76-7.16-1.59-.94-2.85-2.29-4.06-3.6-.31-.34-.62-.67-.93-.99l-.52-.54.42-.62c3.33-4.84,7.69-6.11,12.32-7.45,1.22-.36,2.49-.72,3.75-1.16.74-.26,1.41-.3,1.9-.33.17-.01.4-.02.52-.05.02-.1.04-.33,0-.79Z"/>
      </g>
      <g>
        <path class="cls-1" d="M100.29,109.54c-1.66,2.19-2.41-.13-2.65-1.96-1.56-12.18,4.51-17.44-10.86-22.28-9.49-2.99-19.16-2.97-28.62,0-14.55,4.57-10.45,11.11-10.87,24.23-1.63,2.15-2.4-.02-2.65-1.96-3.1-24.45,12.41-29.07,33.84-27.23,19.44,1.67,23.88,10.27,21.81,29.18Z"/>
        <path class="cls-1" d="M46.07,111.35c-.14,0-.28-.02-.42-.06-1.01-.27-1.66-1.48-1.92-3.6-1.25-9.86.36-16.97,4.94-21.74,5.5-5.72,14.99-7.79,29.89-6.52,9.33.8,15.34,3.2,18.91,7.54,3.79,4.62,4.95,11.61,3.73,22.66l-.03.25-.15.2c-.77,1.01-1.56,1.41-2.36,1.2-1.01-.27-1.66-1.48-1.93-3.59-.43-3.38-.3-6.2-.17-8.68.31-6.34.47-9.53-10.05-12.84-9.31-2.93-18.75-2.93-28.07,0-10.89,3.42-10.7,7.63-10.34,16.02.09,2.17.2,4.64.11,7.37v.29s-.19.23-.19.23c-.63.83-1.29,1.26-1.95,1.26ZM70.63,80.91c-9.9,0-16.54,2.06-20.64,6.32-4.17,4.34-5.62,10.96-4.44,20.24.15,1.19.41,1.78.56,1.99.06-.05.15-.12.27-.26.07-2.54-.03-4.87-.12-6.93-.36-8.43-.6-14,11.63-17.85,9.69-3.04,19.5-3.04,29.17,0,11.88,3.74,11.66,8.09,11.34,14.68-.12,2.4-.25,5.13.16,8.35.14,1.12.4,1.76.56,1.99.07-.05.16-.13.29-.28,1.11-10.37.07-16.86-3.36-21.03-3.23-3.93-8.84-6.12-17.65-6.87-2.79-.24-5.38-.36-7.77-.36Z"/>
      </g>
      <g>
        <path class="cls-1" d="M70.52,49.32c16.59-2.87,18.66,22.68,6.3,25.49-20.33,4.64-21.99-22.78-6.3-25.49ZM70.8,51.47c-11.1,1.98-9.97,21.78,2.24,20.98,13.31-.87,10.56-23.25-2.24-20.98Z"/>
        <path class="cls-1" d="M72.46,76.25c-4.06,0-7.5-1.4-9.93-4.12-3.37-3.76-4.37-9.55-2.57-14.75,1.68-4.84,5.48-8.11,10.4-8.97,5.71-.99,13.05,1.23,14.96,10.75,1.38,6.89-1.34,14.96-8.3,16.54-1.59.36-3.12.54-4.57.54ZM70.52,49.32l.16.9c-4.25.74-7.53,3.56-8.98,7.76-1.57,4.51-.68,9.7,2.2,12.92,2.01,2.24,5.84,4.58,12.73,3.01,5.86-1.34,8.11-8.37,6.9-14.39-1.65-8.21-7.72-10.19-12.85-9.3l-.16-.9ZM72.32,73.39c-6.08,0-9.4-4.82-10-9.77-.9-7.44,3.5-12.19,8.32-13.05,3.76-.67,7.09.58,9.39,3.52,2.86,3.67,3.53,9.21,1.62,13.47-1.56,3.49-4.6,5.55-8.55,5.81-.26.02-.53.03-.78.03ZM72.61,52.22c-.52,0-1.06.05-1.64.15h0c-5.24.93-7.4,6.25-6.82,11.02.48,3.99,3.08,8.52,8.84,8.14,4.15-.27,6.09-2.72,6.99-4.73,1.62-3.61,1.03-8.49-1.39-11.59-1.12-1.43-3.01-2.99-5.97-2.99Z"/>
      </g>
      <g>
        <path class="cls-1" d="M104.27,44.62l11.93.02v3.96c-3.88-.7-14.66,1.27-17.32-.57-3.13-2.18-.93-22.48,1.4-19.29.19,3.28-.23,6.67.01,9.96.11,1.44-.74,4.41,1.97,3.28,4.7-1.97,14.57-17.04,20.54-19.86-1.84,9.3-13.68,14.51-18.54,22.51Z"/>
        <path class="cls-1" d="M103.81,49.77c-2.38,0-4.35-.22-5.44-.98-2.95-2.06-1.86-13.17-1.15-16.76.73-3.69,1.56-4.35,2.28-4.51.26-.06.95-.11,1.53.69l.16.22.02.27c.1,1.62.05,3.28,0,4.88-.05,1.68-.1,3.41.02,5.06.03.35,0,.74-.02,1.15-.02.45-.06,1.26.05,1.53h0c.08,0,.28-.02.66-.18,2.06-.86,5.58-4.91,8.99-8.83,4.05-4.65,8.23-9.47,11.52-11.01l1.64-.77-.35,1.78c-1.15,5.8-5.91,10.03-10.52,14.12-2.6,2.31-5.28,4.69-7.2,7.29l11.13.02v5.98l-1.08-.19c-1.46-.26-4.1-.11-6.89.05-1.87.11-3.71.21-5.35.21ZM99.42,30.65c-.71,2.47-1.37,7.62-1.11,12.05.22,3.86,1.01,4.52,1.1,4.58,1.32.92,5.93.65,9.64.44,2.34-.13,4.58-.26,6.24-.15v-2.02l-12.64-.02.85-1.39c2.06-3.39,5.33-6.29,8.48-9.1,3.88-3.45,7.58-6.74,9.25-10.82-2.69,2.11-5.97,5.87-8.94,9.28-3.87,4.45-7.21,8.29-9.66,9.32-.38.16-1.53.64-2.43,0-.95-.67-.88-2.04-.83-3.14.02-.35.04-.68.02-.93-.13-1.75-.07-3.53-.02-5.25.03-.94.06-1.91.06-2.86Z"/>
      </g>
      <g>
        <path class="cls-1" d="M44.64,41.98l.02-13.24c4.13,1.07,3.08,17.16,2.06,18.63-1.85,2.65-14.28.63-17.98,1.23v-3.96s11.93-.66,11.93-.66c-5.49-7.17-16.62-12.91-18.53-21.86,7.05,4.71,11.93,12.83,18.53,17.89,1.33,1.02,1.68,2.57,3.98,1.97Z"/>
        <path class="cls-1" d="M40.22,49.69c-1.56,0-3.34-.07-5.31-.16-2.49-.11-4.83-.22-6.02-.02l-1.07.18v-5.91l10.98-.61c-1.77-2-3.93-3.91-6.19-5.92-4.96-4.39-10.09-8.92-11.37-14.94l-.47-2.21,1.88,1.26c3.89,2.61,7.15,6.23,10.29,9.73,2.61,2.91,5.31,5.92,8.29,8.2.43.33.76.69,1.05,1.01.53.58.85.9,1.46.91l.02-13.64,1.15.3c1.1.29,1.96,1.26,2.57,2.88,1.8,4.86,1.12,15.57.02,17.16-.98,1.41-3.5,1.8-7.25,1.8ZM30.83,47.57c1.19,0,2.62.07,4.16.14,3.76.17,10.05.46,10.97-.86.59-1.05,1.53-11.35-.35-15.79-.01-.03-.02-.06-.04-.08l-.02,11.72-.69.18c-2.21.57-3.18-.49-3.96-1.34-.26-.29-.51-.56-.81-.79-3.11-2.38-5.87-5.46-8.53-8.43-2.41-2.69-4.89-5.45-7.65-7.71,1.92,4.22,5.97,7.8,9.9,11.28,2.72,2.41,5.53,4.89,7.57,7.55l1.05,1.38-12.79.71v2.08c.36-.02.76-.03,1.18-.03Z"/>
      </g>
      <g>
        <path class="cls-1" d="M30.07,72.45l-7.94-10.59c1.44-1.38,12.92,10.36,13.1,11.44.45,2.59-11.51,15.52-13.1,13.71-1.1-5.7,6.42-6.77,6.62-11.92H.92v-2.65h29.15Z"/>
        <path class="cls-1" d="M22.54,88.11c-.54,0-.89-.23-1.11-.48l-.17-.19-.05-.25c-.69-3.57,1.54-5.6,3.51-7.39,1.29-1.17,2.52-2.3,2.95-3.79H0v-4.48h28.23l-7.33-9.77.59-.56c.28-.27.8-.53,1.67-.24,1.91.63,5.57,4,7.57,5.95,1.22,1.19,5.21,5.14,5.4,6.24.49,2.87-8.81,12.94-12.3,14.61-.52.25-.94.34-1.29.34ZM1.84,74.19h27.86l-.04.95c-.11,2.76-2.01,4.5-3.7,6.03-1.67,1.52-3.14,2.85-3.02,5,.94-.41,3.08-2.04,5.94-5.1,3.52-3.77,5.38-6.74,5.44-7.55-.39-.65-2.6-3.13-5.49-5.89-1.51-1.44-2.73-2.5-3.68-3.25l6.75,8.99H1.84v.81Z"/>
      </g>
      <g>
        <path class="cls-1" d="M116.2,75.1c.2,5.14,7.72,6.21,6.62,11.92-1.6,1.8-13.55-11.12-13.1-13.71.19-1.08,11.67-12.82,13.1-11.44l-7.94,10.59h29.15v2.65h-27.83Z"/>
        <path class="cls-1" d="M122.39,88.11c-.35,0-.77-.1-1.29-.34-3.5-1.68-12.8-11.74-12.3-14.61.28-1.65,10.09-11.24,12.98-12.19.87-.29,1.39-.03,1.67.24l.59.56-7.33,9.77h28.23v4.48h-27.68c.42,1.49,1.65,2.61,2.95,3.79,1.97,1.79,4.2,3.82,3.51,7.39l-.05.25-.17.19c-.22.25-.57.48-1.11.48ZM110.61,73.52c.05.79,1.91,3.77,5.44,7.55,2.86,3.06,5,4.69,5.94,5.1.12-2.15-1.35-3.48-3.02-5-1.68-1.53-3.59-3.26-3.7-6.03l-.04-.95h27.86v-.81h-30.07l6.75-8.99c-.95.76-2.16,1.81-3.68,3.25-2.89,2.76-5.11,5.25-5.49,5.89Z"/>
      </g>
      <g>
        <path class="cls-1" d="M73.79,30.07c1.78,2.02,8.87-7.85,9.94-7.92,1.13-.08,1.99,1.26.67,3.29-2.4,3.66-8.39,7.51-11.27,11.21-4.63-4.39-11.2-7.54-12.58-14.51l9.95,7.93c4.06.34.64-1.44.64-1.98V2.91c0-.23,1.79-2.09,2.65-1.99v29.14Z"/>
        <path class="cls-1" d="M73.23,38l-.73-.7c-1.17-1.11-2.51-2.18-3.81-3.2-3.91-3.1-7.95-6.3-9.04-11.79l-.49-2.46,11.48,9.15c-.25-.27-.42-.56-.42-.92V2.91c0-.21,0-.64,1.22-1.73C72.9-.1,73.65-.02,73.9.01l.81.09v29.26c1.27-.47,4.34-3.83,5.55-5.16,2.03-2.22,2.7-2.93,3.4-2.98.82-.05,1.58.35,1.99,1.04.57.98.39,2.31-.49,3.66-1.35,2.06-3.75,4.15-6.07,6.17-1.95,1.69-3.96,3.45-5.24,5.1l-.62.8ZM62.39,24.76c1.55,3.23,4.43,5.51,7.44,7.9,1.08.85,2.18,1.73,3.21,2.65,1.35-1.54,3.13-3.08,4.85-4.59,2.23-1.94,4.53-3.94,5.74-5.79.57-.86.59-1.47.44-1.73-.02-.03-.06-.1-.16-.13-.42.32-1.45,1.45-2.29,2.37-3.1,3.4-5.44,5.81-7.21,5.81h-.01c-.51,0-.96-.21-1.3-.58l-.08-.09c-.55.5-1.58.47-2.6.39l-.28-.02-7.76-6.18ZM72.06,27.82c.08.08.2.19.28.27.17.16.36.33.53.52V2.37c-.32.27-.64.57-.81.79v24.66Z"/>
      </g>
    </g>
  </g>
</svg>