<?xml version="1.0" encoding="UTF-8"?>
<svg id="Layer_2" data-name="Layer 2" xmlns="http://www.w3.org/2000/svg" viewBox="0 0 148.87 103.28">
  <defs>
    <style>
      .cls-1 {
        fill: #f2f2f2;
      }
    </style>
  </defs>
  <g id="Layer_1-2" data-name="Layer 1">
    <g>
      <path class="cls-1" d="M62.93,103.28c-6.04-3.15-.52-11.13-1.5-14.83-.61-2.32-7.05-5.42-7.57-9.28-.97-7.19,8.25-4.51,11.87-6.21,2.75-1.29,3.89-11.46,8.73-11.46s5.98,10.17,8.73,11.46c3.44,1.62,15.25-.7,11.52,8-.51,1.18-7.27,6.94-7.34,7.46-.63,4.3,4.72,11.79-1.37,14.86h-2.79c-1.39-.84-7.83-4.88-8.73-4.88s-7.35,4.04-8.73,4.88h-2.79ZM79.18,76.6c-1.36-1.11-2.47-8.03-4.73-9.56-1.12-.01-3.5,8.55-4.72,9.57-1.33,1.1-8.82,1.31-10.99,1.58-1.17.98,7.22,7.51,7.58,8.87.57,2.14-1.98,8.67-1.99,11.34.49.49,8.24-4.83,10.13-4.83s9.63,5.32,10.13,4.83c0-2.68-2.56-9.21-1.99-11.34.36-1.36,8.75-7.89,7.58-8.87-2.2-.28-9.62-.47-10.99-1.58Z"/>
      <path class="cls-1" d="M148.87,38.43c-.79,1.45-3.66,3.37-4.05,4.68-.92,3.03,2.06,6.3-1.27,8.5-3.41,2.25-5.58-2-7.48-1.89-1.41.08-3.72,2.48-5.71,2.59-5.09.28-2.25-7.49-2.82-9.03-.68-1.8-4.08-2.31-3.88-6.6.19-4.12,5-2.26,7.06-3.47,1.34-.79,2.26-6.53,5.22-6.61,3.8-.11,4.46,6.3,5.37,6.84,1.06.63,5.9-.45,7.58,2.2v2.79ZM142.58,37.74c-4.89.99-4.29-1.61-6.98-4.19-.41,4.42-3.39,3.55-6.29,5.23,3.5,1.75,3.26,3.91,2.8,7.31,3.68-1.91,4.7-.88,8.38,0-2.04-4.45.66-4.91,2.1-8.36Z"/>
      <path class="cls-1" d="M61.22,5.35c16.53-15.4,42.24,5.35,29.79,25.19-14.95,23.84-52.11-4.41-29.79-25.19ZM70.43,5.13c-4.73.88-10.03,6.8-10.83,11.5-2.95,17.32,19.38,25.18,27.8,11.02,7.15-12.02-3.35-25.05-16.98-22.52Z"/>
      <path class="cls-1" d="M117.25,53.26c1.04,1.01,1.49,4.56,3.01,5.71,2.37,1.79,7.71.03,8.76,3.84,1.04,3.8-4.77,6.27-5.13,8.13s1.75,4.3.62,6.93c-2.31,5.35-6.66-.19-9.57-.38-3.08-.2-4.76,3.56-8.35,2.14-4.88-1.93-.85-5.95-1.86-9.32-.67-2.24-5.64-3.8-4.49-7.49,1.25-3.98,6.72-2.09,8.63-3.65,1.13-.92,3.49-10.65,8.39-5.91ZM115.32,58.65c-1.42-1.3-2.29,3.56-3.52,4.49-1.37,1.04-3.87,1.09-5.55,1.09-.23,2.25,2.67,1.71,3.35,3.98.69,2.31-.45,4.27-.55,6.47,4.83-3.36,6.06-2.39,11.17-.7-2.42-4.83-.25-6.36,2.79-9.75-6.54,1.52-6.22-4.24-7.7-5.58Z"/>
      <path class="cls-1" d="M36.88,53.28c1.28,1.07,2.42,5.26,3.17,5.89,1.89,1.56,7.38-.34,8.63,3.65,1.16,3.69-3.81,5.25-4.49,7.49-.87,2.92,2.19,6.15-.86,8.89-2.89,2.59-6.11-1.54-8.75-1.71-3.35-.22-6.45,5.05-9.7,1.36-2.32-2.63.7-6.4-.06-8.37-.88-2.28-5.85-4.21-4.91-7.66,1.05-3.83,6.42-2.11,8.58-3.67,1.97-1.42,3.13-10.24,8.39-5.86ZM34.97,58.65c-1.68-1.55-2.63,4.56-2.89,4.77-.37.31-5.1.55-6.18.81,3.28,3.18,4.79,5.82,2.79,10.44.75.62,4.44-2.73,5.82-2.64.91.05,5.16,2.88,5.35,2.65-2.04-5.6-.12-6.65,2.8-10.45-6.56,1.5-6.19-4.19-7.7-5.58Z"/>
      <path class="cls-1" d="M7.63,33.44c.91-.54,1.57-6.95,5.37-6.84,2.95.08,3.87,5.82,5.22,6.61,2.59,1.52,8.99-1.01,6.85,6.13-.47,1.57-3.58,3.05-3.76,4.29-.28,1.89,1.57,5.63-.27,7.72-2.37,2.68-6.67-1.81-8.64-1.62-1.43.14-3.37,2.71-5.6,2.47-5.31-.56-1.8-6.21-2.68-9.09-.61-2-4.93-3.5-3.96-6.97s6.36-2.02,7.48-2.7ZM13.31,33.55c-2.33-.64-1.07,2.83-2.77,3.85-1.15.69-2.9.25-4.2.34,1.18,3.23,4.5,4.22,2.09,8.36,3.67-.89,4.71-1.89,8.38,0-.38-3.03-.82-6.03,2.8-6.98-2.2-2.33-5.98-.77-6.3-5.56Z"/>
      <path class="cls-1" d="M106.24,54.47c-2.38-2.87-4.03-5.57-7.04-7.96-3.84-3.05-8-3.95-11.82-6.67,1.56-.06,2.58-1.71,4-2,3.68-.75,15.74,8.23,16.69,11.74.48,1.77-2,3.02-1.84,4.89Z"/>
      <path class="cls-1" d="M43.36,53.77c-5.65-3.78-.51-8.12,3.17-11.13,3.97-3.25,10.46-8.05,14.29-2.46-6.91,2.99-14.5,6.07-17.46,13.59Z"/>
      <path class="cls-1" d="M92.97,90.03c3.55-7.09,11.19-3.02,17.13-4.17,1.93-.37,2.38-3.57,4.86-3.5,3.1,1.57-.61,7.67-2.08,7.67h-19.91Z"/>
      <path class="cls-1" d="M55.94,90.03h-19.91c-1.59,0-5.01-7.09-2.08-7.67,2.08-.41,3.06,3.15,4.86,3.5,5.94,1.15,13.58-2.91,17.13,4.17Z"/>
    </g>
  </g>
</svg>