<?xml version="1.0" encoding="UTF-8"?>
<svg id="Layer_2" data-name="Layer 2" xmlns="http://www.w3.org/2000/svg" viewBox="0 0 90.54 119.96">
  <defs>
    <style>
      .cls-1 {
        fill: #f2f2f2;
      }
    </style>
  </defs>
  <g id="Layer_1-2" data-name="Layer 1">
    <g>
      <g>
        <path class="cls-1" d="M13.07,80.26v6.93c3.16,1.16,8.34.64,10.41,3.78,2.32,3.51,1.62,5.59-.42,8.92-.56.91-3.24,3.77-2.87,4.5.25.49,4.56,4.58,4.93,4.58,4.32-2.67,7.33-6.86,12.68-3.59,3.77,2.31,2.6,7.09,4.19,10.6l6.73-.06c1.25-4.07.28-8.66,4.71-10.88,5.14-2.58,7.86,1.48,11.97,3.93.79,0,4.19-4.01,5.04-4.79-2.63-4.59-7.16-7.61-3.41-13.21,2.15-3.21,7.08-2.54,10.3-3.71l.11-7c-2.81-.75-8.74-.71-10.42-3.42-1.61-2.6-1.9-4.69-.54-7.44.57-1.14,3.87-5.19,3.94-5.52.16-.81-2.27-2.41.23-3.97,6.98,4.88-3.45,8.14-2.18,13.74,1.1,4.87,8.75,2.49,10.92,4.84,1.27,1.38,1.3,8.65.36,10.13-2.02,3.16-10.6.25-11.36,5.82-.63,4.62,7.14,7.64,3.84,11.9-.46.59-4.3,4.36-4.82,4.7-4.06,2.62-7.11-4.95-11.73-4.1-6,1.1-1.59,11.19-7.08,11.84-1.46.17-5.59.19-6.99-.03-4.97-.78-.78-11.03-7.05-11.88-3.57-.48-6.86,4.79-9.43,4.93-1.4.07-3.18-1.86-4.2-2.83-.9-.85-3.61-3.58-3.64-4.74-.05-2.67,5.36-6.08,4.85-9.79-.79-5.79-10.05-2.45-11.57-6.31-.63-1.61-.68-8.35.57-9.64,2.41-2.5,11.24.33,11.05-6.15-.13-4.58-8.83-7.87-2.31-12.43,2.49,1.56.06,3.16.23,3.97.07.35,3.47,4.5,4.05,5.76,1.2,2.62.98,4.5-.53,6.98-1.87,3.06-7.43,2.82-10.54,3.64Z"/>
        <path class="cls-1" d="M45.13,119.96c-1.46,0-2.93-.06-3.7-.18-3.12-.49-3.51-3.6-3.86-6.34-.41-3.23-.82-5.22-3.17-5.54-1.58-.21-3.28,1.18-4.92,2.52-1.47,1.2-2.86,2.34-4.32,2.41-.04,0-.09,0-.13,0-1.64,0-3.27-1.58-4.46-2.74-.14-.14-.27-.26-.39-.38-1.47-1.39-3.94-3.95-3.97-5.48-.03-1.56,1.14-3.04,2.38-4.62,1.33-1.68,2.7-3.43,2.48-5.05-.31-2.25-2.27-2.67-5.46-3.09-2.53-.33-5.14-.68-6.04-2.98-.67-1.72-.88-9.03.79-10.76,1.15-1.2,3.1-1.41,5.16-1.64,3.87-.43,5.68-.94,5.59-3.75-.04-1.34-1.16-2.73-2.24-4.07-1.35-1.67-2.74-3.39-2.45-5.44.19-1.37,1.12-2.62,2.84-3.82l.57-.4.59.37c2.61,1.63,1.39,3.69.93,4.47-.04.07-.09.15-.13.23.25.36.71.96,1.1,1.48,1.36,1.8,2.42,3.23,2.78,4.01,1.32,2.88,1.16,5.11-.59,7.97-1.62,2.66-5.2,3.17-8.35,3.61-.72.1-1.42.2-2.04.32v5.31c.8.21,1.71.36,2.66.51,2.78.45,5.93.95,7.58,3.46,2.77,4.2,1.58,6.81-.4,10.06-.2.33-.55.77-1,1.32-.47.59-1.39,1.73-1.68,2.31.71.78,2.86,2.82,3.84,3.63.68-.45,1.34-.94,1.98-1.42,3.16-2.34,6.42-4.76,11.24-1.81,2.85,1.74,3.29,4.68,3.69,7.27.17,1.13.33,2.2.66,3.17l5.21-.05c.21-.87.34-1.77.47-2.65.45-3.09.92-6.29,4.58-8.12,4.5-2.26,7.46-.03,10.33,2.12.7.52,1.42,1.06,2.17,1.55.73-.58,2.2-2.16,2.95-2.98.26-.29.5-.54.71-.76-.48-.76-1.01-1.49-1.53-2.2-2.32-3.2-4.73-6.52-1.43-11.43,1.71-2.55,4.76-3,7.46-3.41.95-.14,1.87-.28,2.68-.5l.09-5.37c-.56-.11-1.22-.2-1.89-.3-3.06-.45-6.87-1.01-8.36-3.4-1.89-3.05-2.06-5.5-.58-8.47.33-.67,1.28-1.93,2.57-3.64.42-.55.91-1.21,1.18-1.58-.04-.07-.09-.16-.13-.23-.46-.78-1.68-2.84.93-4.47l.59-.37.57.4c1.71,1.19,2.64,2.43,2.84,3.79.29,2-1.05,3.7-2.36,5.35-1.37,1.73-2.66,3.37-2.24,5.23.46,2.03,2.49,2.39,5.53,2.71,2.06.22,4,.42,5.13,1.65,1.69,1.83,1.55,9.72.47,11.41-1.12,1.75-3.46,2.04-5.72,2.33-3.2.4-5.17.81-5.47,3.07-.22,1.61.96,3.1,2.21,4.67,1.67,2.1,3.75,4.71,1.41,7.73-.47.61-4.38,4.49-5.09,4.94-2.79,1.8-5.26-.16-7.24-1.73-1.64-1.3-3.19-2.53-4.87-2.22-2.14.39-2.52,2.28-2.89,5.34-.33,2.71-.74,6.09-4.26,6.5-.78.09-2.18.14-3.58.14ZM34.07,105.79c.2,0,.41.01.62.04,4.13.56,4.6,4.33,4.98,7.36.36,2.9.69,4.3,2.09,4.52,1.27.2,5.31.19,6.71.02,1.69-.2,2.03-1.57,2.41-4.66.35-2.88.79-6.46,4.61-7.16,2.63-.48,4.72,1.18,6.56,2.65,2.27,1.8,3.4,2.5,4.78,1.61.47-.34,4.15-3.93,4.56-4.46,1.2-1.55.54-2.7-1.39-5.12-1.4-1.76-3-3.76-2.65-6.27.55-4.03,4.29-4.5,7.3-4.88,1.78-.23,3.63-.46,4.21-1.37.79-1.23.6-7.93-.24-8.85-.6-.65-2.23-.82-3.8-.98-2.91-.3-6.54-.68-7.37-4.34-.64-2.84,1.1-5.05,2.64-7,1.07-1.36,2.09-2.64,1.92-3.74-.09-.6-.54-1.24-1.34-1.9-.21.29-.05.57.31,1.17.29.48.61,1.03.48,1.67-.07.35-.21.56-1.67,2.48-.88,1.16-2.09,2.76-2.36,3.3-1.15,2.3-1.02,3.98.49,6.42.97,1.56,4.24,2.04,6.87,2.43,1.08.16,2.11.31,2.92.53l.8.21-.14,8.54-.68.25c-1.15.42-2.48.62-3.76.81-2.49.37-4.83.72-6.02,2.5-2.48,3.69-.85,5.93,1.39,9.02.7.97,1.43,1.97,2.06,3.08l.42.73-.63.57c-.22.2-.69.71-1.2,1.26-2.86,3.09-3.72,3.81-4.55,3.81h-.3s-.25-.15-.25-.15c-1.03-.61-1.95-1.31-2.84-1.98-2.78-2.08-4.78-3.59-8.12-1.92-2.67,1.34-3.01,3.64-3.44,6.55-.18,1.21-.36,2.46-.74,3.7l-.23.74-8.19.07-.28-.63c-.62-1.38-.85-2.89-1.07-4.34-.37-2.45-.69-4.56-2.7-5.79-3.6-2.2-5.82-.56-8.89,1.71-.85.63-1.74,1.29-2.69,1.88l-.25.16h-.3s0,0,0,0c-1.22,0-5.85-5.1-5.87-5.15-.54-1.07.43-2.38,2.07-4.42.35-.44.71-.89.85-1.11,2.02-3.29,2.37-4.88.44-7.79-1.15-1.74-3.7-2.15-6.16-2.54-1.34-.22-2.61-.42-3.73-.83l-.69-.25v-8.47s.77-.21.77-.21c.9-.24,1.95-.39,3.07-.55,2.69-.38,5.75-.82,6.85-2.63,1.37-2.25,1.49-3.76.47-5.99-.29-.63-1.65-2.43-2.55-3.62-1.34-1.77-1.51-2.02-1.58-2.38-.13-.64.2-1.19.48-1.67.36-.61.52-.88.31-1.17-.8.67-1.25,1.31-1.34,1.92-.16,1.14.89,2.44,2.01,3.82,1.24,1.54,2.65,3.27,2.71,5.33.15,5.06-4.25,5.55-7.47,5.91-1.6.18-3.25.36-3.87,1.01-.69.73-1.06,6.71-.34,8.53.45,1.14,2.35,1.39,4.36,1.66,3,.39,6.73.89,7.28,4.9.34,2.51-1.39,4.7-2.91,6.64-.96,1.21-1.94,2.46-1.93,3.27.07.48,1.42,2.21,3.31,3.99.13.12.26.25.41.39.73.71,2.28,2.19,3.02,2.14.77-.04,1.95-1.01,3.09-1.94,1.74-1.42,3.7-3.02,5.92-3.02ZM25.53,108.01h0s0,0,0,0Z"/>
      </g>
      <g>
        <path class="cls-1" d="M40.61,18.64c20.36-2.66,36.68,15.49,29.68,35.29-2.54,7.18-12.79,16.64-13.77,23.76-.13.9,1.63,2.36.08,3.19-3.05-.43-21.64.79-22.91-.1-1.12-.79.43-2.3.32-3.08-.82-5.93-9.24-14.98-12.21-20.41-8.36-15.29,1.39-36.36,18.83-38.64ZM42.03,21.11c-9.25.99-17.43,8.4-19.87,17.26-4.48,16.22,7.5,22.25,13,34.95.41.94,1.17,4.32,1.68,4.62l16.59.11c.87-.29,1.28-3.22,1.72-4.24,2.4-5.63,6.36-10.24,9.66-15.21,11.79-17.7-1.74-39.76-22.78-37.5Z"/>
        <path class="cls-1" d="M38.06,82.16c-3.14,0-4.45-.15-4.99-.53-1.44-1.01-.71-2.58-.36-3.33.08-.17.2-.42.23-.54-.54-3.61-4.24-8.71-7.51-13.21-1.81-2.49-3.51-4.84-4.58-6.78-4.24-7.76-4.23-17.41.03-25.79,4.1-8.06,11.24-13.31,19.59-14.4,10.36-1.36,20.29,2.47,26.56,10.21,6.02,7.43,7.56,17.08,4.24,26.47-1.18,3.34-3.82,6.96-6.61,10.8-3.25,4.46-6.6,9.06-7.11,12.75.02.03.15.31.24.5.33.67,1.19,2.46-.71,3.48l-.3.16-.34-.05c-1.21-.17-5.5-.05-9.65.07-3.88.11-6.69.17-8.74.17ZM34.34,79.89c1.44.3,7.99.11,12.4-.01,4.08-.11,7.66-.21,9.4-.11-.06-.16-.16-.38-.24-.53-.24-.5-.52-1.07-.43-1.7.58-4.21,4.1-9.04,7.49-13.7,2.58-3.54,5.25-7.21,6.33-10.26,3.07-8.68,1.65-17.59-3.9-24.45-5.81-7.17-15.02-10.71-24.65-9.45h0c-7.65,1-14.2,5.83-17.98,13.26-3.95,7.76-3.97,16.67-.06,23.82,1,1.82,2.66,4.12,4.43,6.55,3.43,4.73,7.33,10.08,7.9,14.22.08.59-.17,1.13-.42,1.66-.09.18-.23.5-.28.69ZM53.6,79.12l-17.05-.12-.25-.15c-.63-.37-.94-1.27-1.61-3.55-.19-.63-.38-1.28-.5-1.56-1.72-3.98-4.12-7.32-6.44-10.55-5.03-7-9.78-13.61-6.61-25.1,2.6-9.43,11.34-17.02,20.78-18.03h0c10.18-1.09,19.66,3.43,24.74,11.81,5.06,8.35,4.69,18.82-.97,27.32-.95,1.42-1.96,2.83-2.94,4.2-2.44,3.4-4.96,6.91-6.63,10.84-.11.25-.24.75-.37,1.24-.44,1.65-.85,3.2-1.98,3.59l-.17.06ZM37.42,76.9l15.62.11c.24-.44.53-1.52.68-2.07.16-.61.3-1.13.47-1.52,1.77-4.14,4.36-7.75,6.86-11.24.97-1.35,1.97-2.75,2.9-4.14,5.28-7.94,5.63-17.3.93-25.06-4.65-7.67-13.35-11.81-22.72-10.81-8.61.92-16.59,7.86-18.97,16.49-2.9,10.52,1.35,16.45,6.29,23.31,2.39,3.32,4.85,6.75,6.67,10.95.17.39.36,1.04.58,1.8.18.61.49,1.65.71,2.19Z"/>
      </g>
      <g>
        <path class="cls-1" d="M56.29,83.73c1.5.25,1.3,2.47-.72,2.78-3.8.59-16.27.44-20.31.04-2.76-.27-2.23-2.82-1.03-2.82h22.07Z"/>
        <path class="cls-1" d="M46.03,87.96c-4.26,0-8.66-.14-10.88-.36-2.13-.21-3.01-1.56-2.95-2.81.06-1.19.95-2.11,2.03-2.11h22.24c1.12.2,1.87,1.08,1.86,2.19,0,1.1-.82,2.41-2.6,2.69-1.87.29-5.72.41-9.7.41ZM34.32,84.78c-.02.05-.04.15,0,.24.09.24.48.42,1.04.48,4.1.41,16.39.53,20.05-.04.54-.08.72-.35.77-.46.05-.11.04-.19.03-.21,0,0-.01,0-.03-.02h-21.85Z"/>
      </g>
      <g>
        <path class="cls-1" d="M33.87,91.44c-.53-.17-.74-1.63-.48-2.06.19-.31,1.74-.39,2.21-.41,5.28-.31,15.25-.57,20.31.05,2.27.28,1.07,2.42.73,2.42h-22.77Z"/>
        <path class="cls-1" d="M56.64,92.49h-22.93l-.15-.05c-.34-.11-.81-.4-1.1-1.18-.22-.6-.39-1.74.04-2.44.4-.65,1.28-.81,2.97-.9h.08c5.47-.32,15.45-.57,20.5.05,1.77.22,2.33,1.36,2.27,2.36-.05.88-.68,2.15-1.67,2.15ZM34.38,90.38h21.78c.03-.08.05-.17.04-.21-.03,0-.13-.07-.43-.1-4.91-.61-14.72-.36-20.12-.05h-.08c-.62.04-1.01.08-1.24.12,0,.08.02.17.04.25Z"/>
      </g>
      <g>
        <path class="cls-1" d="M40.93,94.99c.5-.16,8.16-.16,8.66,0,1.25.41.55,3.52-.34,4.47-3.2,3.4-9.84,1.28-8.89-3.64.08-.42.11-.67.57-.83Z"/>
        <path class="cls-1" d="M45.28,102.16c-1.12,0-2.2-.26-3.09-.72-2.24-1.14-3.35-3.38-2.88-5.83.09-.49.24-1.29,1.28-1.63.7-.23,8.62-.23,9.31,0,.65.21,1.11.74,1.3,1.49.39,1.51-.33,3.77-1.2,4.7-1.31,1.4-3.06,1.98-4.73,1.98ZM41.39,95.99c-.41,2.22,1.09,3.24,1.76,3.58,1.53.78,3.85.74,5.33-.83.51-.54.87-2.21.7-2.74-1.2-.1-6.47-.1-7.78,0Z"/>
      </g>
      <g>
        <path class="cls-1" d="M43.85,2.26c.4-1.91,2.8-1.29,2.8,0v11.56c0,.88-2.37,1.29-2.8,0,.48-3.32-.64-8.5,0-11.56Z"/>
        <path class="cls-1" d="M45.23,15.7c-1.12,0-2.06-.59-2.38-1.54l-.08-.24.04-.25c.21-1.47.08-3.44-.05-5.35-.15-2.23-.3-4.53.06-6.28h0c.33-1.56,1.58-2.15,2.67-2.03,1.27.13,2.22,1.1,2.22,2.25v11.56c0,.91-.78,1.64-1.94,1.83-.18.03-.36.04-.54.04ZM44.95,13.55s.09.03.16.04c.2.02.38,0,.5-.05V2.26s-.22-.18-.42-.15c-.08,0-.22.02-.29.37h0c-.31,1.47-.16,3.62-.02,5.7.12,1.85.25,3.76.09,5.37Z"/>
      </g>
      <g>
        <path class="cls-1" d="M76.73,14.05c1.05,1.66-3.36,4.89-4.35,5.89s-3.67,5.19-5.26,3.9c-1.03-.84-.21-1.74.37-2.49.6-.79,7.06-7.33,7.55-7.54.44-.2,1.52-.03,1.69.24Z"/>
        <path class="cls-1" d="M67.79,25.14c-.6,0-1.04-.25-1.33-.47-1.76-1.42-.43-3.14.07-3.79l.12-.16c.33-.43,7.09-7.48,7.96-7.87.78-.35,2.48-.19,3,.64h0c1.34,2.11-1.69,4.74-3.69,6.48-.34.3-.63.54-.8.72-.17.17-.45.52-.75.89-.66.82-1.48,1.84-2.36,2.57-.9.75-1.64.99-2.24.99ZM67.69,22.94s.04.04.1.08c.42.07,1.43-.87,2.96-2.78.36-.45.65-.8.89-1.05.2-.2.52-.48.91-.82,2.43-2.11,3.16-3.11,3.28-3.58-.12-.02-.24-.02-.33-.02-1.06.86-6.67,6.55-7.17,7.21l-.13.17c-.17.21-.47.6-.51.78Z"/>
      </g>
      <g>
        <path class="cls-1" d="M21.21,23.34c-1.09-.9-5.63-5.34-6.42-6.37-.74-.97-2.13-3.5.11-3.23,1.52.19,6.92,6.94,8.65,8.13,1.05,1.76-.49,3.01-2.35,1.47Z"/>
        <path class="cls-1" d="M22.8,25.09c-.66,0-1.43-.26-2.26-.94-1.13-.94-5.75-5.44-6.58-6.54-.46-.6-1.89-2.66-1.09-4.06.22-.39.81-1.02,2.17-.86,1.17.14,2.69,1.66,5.88,5.08,1.29,1.38,2.63,2.81,3.24,3.23l.19.13.12.2c.73,1.23.64,2.51-.23,3.26-.34.29-.84.5-1.43.5ZM14.79,14.8c.13.39.44,1.01.84,1.53.69.91,5.13,5.27,6.25,6.19h0c.57.47.94.47,1,.45,0,0,0,0,0,0-.02,0-.02-.15-.14-.4-.81-.63-2-1.91-3.37-3.37-1.43-1.53-3.78-4.05-4.58-4.41Z"/>
      </g>
      <g>
        <path class="cls-1" d="M1.64,46.59c-.53-.17-.74-1.63-.48-2.06.19-.31,1.74-.39,2.21-.41,2.51-.15,7.77-.3,10.1.11,1.83.32.77,2.36.43,2.36H1.64Z"/>
        <path class="cls-1" d="M13.9,47.64H1.48l-.15-.05c-.34-.11-.81-.4-1.1-1.18-.22-.6-.39-1.74.04-2.44.4-.65,1.28-.81,2.97-.9h.08c.3-.02,7.29-.42,10.34.12,1.26.22,2.01,1.14,1.91,2.34-.07.85-.65,2.11-1.66,2.11ZM2.16,45.53h11.27c.03-.09.05-.17.04-.23h0s-.08-.02-.17-.04c-2.08-.37-7.03-.26-9.85-.1h-.09c-.62.04-1,.08-1.24.12,0,.08.02.17.04.25Z"/>
      </g>
      <g>
        <path class="cls-1" d="M76.61,46.59c-.53-.17-.74-1.63-.48-2.06.19-.31,1.74-.39,2.21-.41,2.51-.15,7.77-.3,10.1.11,1.83.32.77,2.36.43,2.36h-12.26Z"/>
        <path class="cls-1" d="M88.87,47.64h-12.42l-.15-.05c-.34-.11-.81-.4-1.1-1.18-.22-.59-.39-1.74.04-2.44.4-.65,1.28-.81,2.97-.9h.08c.3-.02,7.29-.42,10.34.12,1.26.22,2.01,1.14,1.91,2.34-.07.85-.65,2.11-1.66,2.11ZM77.12,45.53h11.27c.03-.09.05-.17.04-.23h0s-.08-.02-.17-.04c-2.08-.37-7.03-.26-9.85-.1h-.09c-.62.04-1,.08-1.24.12,0,.08.02.17.04.25Z"/>
      </g>
      <g>
        <path class="cls-1" d="M61.37,40.28c1.86,6.45.29,13.94-4.9,18.4-9.27,7.97-24.08,3.85-27.43-7.96-4.54-16,13.85-28.26,26.7-17.93-1.61,2.76-1.5,1.69-3.24.77-16.63-8.78-29.66,13.65-15.63,24.04,9.2,6.82,22.6-.12,22.76-11.53.03-2.33-1.52-4.82,1.72-5.78Z"/>
        <path class="cls-1" d="M45.36,63.85c-1.78,0-3.59-.26-5.36-.79-5.86-1.76-10.33-6.27-11.97-12.05-2.2-7.77.68-15.64,7.34-20.05,6.59-4.36,14.85-3.97,21.04,1.02l.71.57-.46.78c-.83,1.43-1.34,2.09-2.12,2.25-.72.15-1.24-.23-1.71-.56-.23-.16-.49-.35-.82-.53-7.85-4.14-14.62-.8-17.86,4.35-3.19,5.07-3.5,12.84,3.35,17.92,3.93,2.91,8.98,3.3,13.51,1.06,4.6-2.28,7.51-6.78,7.58-11.76,0-.5-.08-1.04-.17-1.61-.26-1.67-.66-4.19,2.64-5.17l1.02-.3.29,1.02c2.07,7.19-.03,15.02-5.22,19.49-3.33,2.86-7.51,4.37-11.8,4.37ZM45.2,30.05c-2.99,0-5.99.88-8.67,2.66-5.88,3.89-8.42,10.85-6.47,17.72,1.44,5.09,5.39,9.06,10.55,10.61,5.33,1.6,11,.42,15.17-3.16,4.29-3.69,6.18-10.02,4.88-16.08-.42.43-.35,1.08-.16,2.32.1.63.2,1.28.19,1.96-.08,5.77-3.43,10.98-8.75,13.61-5.26,2.6-11.12,2.13-15.7-1.25-7.93-5.87-7.57-14.86-3.88-20.73,3.75-5.97,11.58-9.86,20.63-5.09.46.24.81.5,1.07.68.02.02.05.03.07.05.06-.08.13-.18.21-.31-2.77-1.99-5.96-3-9.15-3Z"/>
      </g>
      <g>
        <path class="cls-1" d="M42.31,52.34c-1.01-1.01-5.36-5.21-5.38-6.23-.01-.7.76-1.29,1.44-1.19,1.83.25,5.54,6.44,6.67,6.21l15.52-19.2c1.75-.5,1.86,1.34,1.1,2.52-5.3,5.68-9.65,13.52-15,18.98-2.35,2.4-2.64.63-4.36-1.09Z"/>
        <path class="cls-1" d="M44.81,55.65s-.07,0-.1,0c-1.03-.05-1.67-.83-2.29-1.58-.26-.32-.54-.65-.86-.98l-.34-.34c-4.47-4.42-5.33-5.74-5.35-6.61-.01-.61.26-1.22.76-1.65.52-.47,1.23-.69,1.88-.6,1.27.17,2.53,1.58,4.46,3.88.54.65,1.29,1.55,1.8,2.03l15.19-18.79.32-.09c1.46-.42,2.2.32,2.45.66.75,1.01.44,2.49-.17,3.45l-.12.15c-2.49,2.67-4.83,5.91-7.09,9.04-2.5,3.47-5.09,7.06-7.94,9.96-1.01,1.03-1.8,1.48-2.6,1.48ZM43.05,51.59c.4.4.72.79,1,1.14.26.32.62.76.77.81-.01,0,.28-.04,1.08-.85,2.74-2.79,5.28-6.31,7.73-9.71,2.28-3.15,4.63-6.41,7.18-9.16.17-.31.24-.62.23-.82l-15.43,19.09-.37.08c-1.16.24-2.19-1-3.91-3.05-.88-1.05-2.52-3.01-3.13-3.15-.04,0-.16.05-.21.11.23.45,1.18,1.71,4.69,5.17l.35.35Z"/>
      </g>
    </g>
  </g>
</svg>