<?xml version="1.0" encoding="UTF-8"?>
<svg id="Layer_2" data-name="Layer 2" xmlns="http://www.w3.org/2000/svg" viewBox="0 0 119.5 102.31">
  <defs>
    <style>
      .cls-1 {
        fill: #f2f2f2;
      }
    </style>
  </defs>
  <g id="Layer_1-2" data-name="Layer 1">
    <g>
      <g>
        <path class="cls-1" d="M55.67,97.87c1.32-1.38-3.61-13.51,6.88-11.67-.31,2.23-4.59,2.06-5.05,2.81-2.88,4.66,6.3,13.92-12.61,11.57-8.59-1.07-3.94-8.54-5.97-11.73-.24-.38-7.41-3.34-8-3.43-3.75-.55-6.31,7.83-11.88,4.41-.45-.27-7.05-7.16-7.31-7.63-3.51-6.27,4.95-9.85,5-11.71.01-.47-3.37-8.2-3.66-8.56-1.88-2.35-9.46,1.33-11.24-4.44-.78-2.54-.83-11.8.55-13.91,2.3-3.5,8.34-1.38,10.29-2.73.4-.28,4.07-8.54,4.06-9.04-.05-1.86-8.51-5.44-5-11.71.26-.47,6.86-7.36,7.31-7.63,5.57-3.42,8.13,4.96,11.88,4.41.59-.09,7.76-3.05,8-3.43,2.03-3.2-2.62-10.67,5.97-11.73,18.91-2.35,9.73,6.94,12.61,11.57.27.43,9.87,2.66,7.62,4.61-1.66-.43-8.43-2.58-9.06-3.55-1.1-1.71.08-9.92-.4-9.92h-13.34c-2.13,0-.97,8.8-1.38,10.69-3.51-.5-9.09,4.61-11.55,4.56-3.08-.06-4.3-7.25-8.4-6.14-.51.14-7.14,6.75-7.55,7.48-2.63,4.62,3.54,6.75,4.84,9.49.73,1.53-2.1,5.91-2.86,7.81-.46,1.14-.96,4.49-1.14,4.65-1,.91-8.51-1.09-9.86.93-.66.99-.68,13.46,0,14.49,1.35,2.02,8.87.03,9.86.93.17.16.68,3.5,1.14,4.65.67,1.66,3.02,5.59,3.11,6.66.21,2.48-7.36,5.83-5.49,10.13.29.66,7.38,7.84,7.95,7.99,4.1,1.11,5.33-6.08,8.4-6.14,2.46-.05,8.05,5.06,11.55,4.56.41,1.89-.75,10.69,1.38,10.69,1.91,0,12.86.49,13.34,0Z"/>
        <path class="cls-1" d="M50.15,102.31c-1.55,0-3.34-.13-5.4-.39-6.92-.86-6.71-5.7-6.57-8.91.05-1.27.11-2.48-.22-3.22-1.2-.65-6.54-2.87-7.27-3.05-.87-.12-1.98.93-3.16,2.05-2.11,2-5.01,4.73-9.13,2.2-.64-.4-7.4-7.45-7.77-8.11-2.98-5.33,1.21-9.15,3.46-11.21.44-.41,1.02-.93,1.29-1.26-.55-1.52-2.85-6.78-3.32-7.65-.41-.39-1.89-.39-3.08-.39-2.78,0-6.98,0-8.36-4.46-.85-2.76-.99-12.49.71-15.09,1.8-2.74,5.1-2.76,7.76-2.78.99,0,2.19-.01,2.73-.23.66-1.16,3-6.37,3.55-7.92-.26-.32-.84-.85-1.28-1.26-2.25-2.06-6.44-5.88-3.46-11.21.37-.66,7.13-7.72,7.77-8.11,4.12-2.53,7.02.21,9.13,2.2,1.18,1.12,2.29,2.16,3.22,2.03.67-.18,6.01-2.39,7.2-3.04.32-.74.27-1.94.22-3.22-.14-3.21-.35-8.05,6.57-8.91,6.75-.84,10.61-.32,12.5,1.68,1.7,1.8,1.4,4.25,1.13,6.41-.18,1.45-.35,2.83.07,3.8.3.11.8.28,1.22.42,4.53,1.51,6.75,2.52,7.07,4.23.14.75-.14,1.49-.77,2.04l-.5.44-.64-.16c-.09-.02-8.71-2.38-9.83-4.11-.86-1.32-.78-4.11-.58-7.92.02-.46.05-.97.07-1.4h-11.84c-.41.99-.34,4.31-.31,5.97.04,1.81.05,2.95-.1,3.67l-.26,1.21-1.18-.17c-1.57-.23-4.15,1.25-6.22,2.44-2.02,1.16-3.78,2.15-5.17,2.13-1.99-.04-3.28-1.86-4.41-3.46-1.43-2.02-2.26-2.99-3.47-2.76-1.09.85-6.39,6.13-6.96,6.95-1.07,1.89-.14,3.02,2.26,5.14,1.09.96,2.11,1.87,2.65,3.01.77,1.62-.31,3.94-1.91,7.05-.38.74-.74,1.43-.92,1.89-.21.52-.49,1.89-.67,2.8-.33,1.64-.4,1.98-.81,2.35-.78.7-2.01.65-4.52.46-1.33-.1-4.4-.32-5.08.18-.44,1.79-.44,11.3,0,13.03.66.5,3.74.27,5.08.18,2.5-.18,3.74-.24,4.52.46.4.37.47.71.81,2.35.18.91.47,2.28.67,2.8.24.59.77,1.61,1.28,2.59,1.26,2.41,1.86,3.64,1.93,4.47.14,1.65-1.21,2.96-2.77,4.49-2.06,2.01-3.47,3.56-2.86,5.12.75,1.02,6.18,6.5,7.29,7.36,1.21.23,2.05-.73,3.48-2.76,1.13-1.6,2.42-3.42,4.41-3.46,1.4-.04,3.15.97,5.18,2.13,2.08,1.19,4.67,2.67,6.22,2.44l1.18-.17.26,1.21c.16.72.14,1.86.1,3.67-.03,1.65-.1,4.98.31,5.97.56,0,1.47.03,2.56.07,2.38.07,7.55.22,9.43.11,0-.47-.07-1.16-.12-1.72-.24-2.77-.58-6.57,1.7-8.78,1.44-1.39,3.64-1.84,6.56-1.33l1.25.22-.18,1.31c-.33,2.37-2.93,2.98-4.49,3.34-.29.07-.66.15-.88.22-.46.99-.29,2.4-.1,3.89.27,2.16.57,4.61-1.13,6.4-1.31,1.39-3.57,2.06-7.1,2.06ZM45.66,99.31c3.24.37,5.45.35,6.96.13-1.58,0-3.76-.04-6.96-.13ZM29.45,83.97h-.02c-.36,0-.76.32-1.16.77.54-.33,1.11-.57,1.72-.66-.21-.07-.4-.11-.54-.11ZM5.58,57.78h0s0,0,0,0ZM2.63,49.42c-.07,1.64-.06,3.41.05,4.89-.07-1.54-.08-3.26-.05-4.89ZM28.28,17.57c.41.45.8.76,1.16.77.16,0,.33-.04.55-.11-.61-.09-1.17-.33-1.71-.66ZM44.96,3.09h8.74c-1.54-.41-4.17-.57-8.65-.01-.03,0-.06,0-.09.01Z"/>
      </g>
      <g>
        <path class="cls-1" d="M88.67,69.44c-4,4.93-.55,10.23-2.83,15.46-3.19.31-20.05,1.26-21.19-.45-1.33-1.99.53-9.56-1.02-13.31-1.36-3.29-9-7.13-11.57-13.97-15.95-42.36,55.22-51.85,48.15-4.89-1.55,10.27-6.55,11-11.54,17.15ZM66,82.6h18.93c-.88-1-.72-4.25-.9-4.45-.34-.36-11.93.85-8.56-1.84,1.86-.43,7.37.65,8.49-.12.32-.22,1.28-5.39,2.82-7.39,4.15-5.43,10.29-7.69,11.72-16.51,6.26-38.77-50.51-39.91-46.16-1.68,1.4,12.35,11.06,14.16,13.47,21.89,1.24,3.98-1.75,4.25,5.36,3.81.8,3.42-3.45.64-4.78,2.63-.66.98-.32,2.5-.37,3.65Z"/>
        <path class="cls-1" d="M72.82,86.8c-8.18,0-8.78-.9-9.23-1.57-.88-1.32-.79-3.59-.67-6.46.1-2.54.22-5.41-.47-7.09-.43-1.04-1.98-2.44-3.62-3.92-2.81-2.54-6.32-5.7-7.97-10.09-6.2-16.48.73-26.16,5.41-30.46,8.96-8.23,23.48-9.97,33.77-4.06,5.46,3.13,14.2,11.11,11.45,29.35-1.16,7.68-4.27,10.5-7.57,13.49-1.39,1.26-2.83,2.56-4.26,4.33h0c-1.93,2.38-1.83,4.84-1.72,7.7.07,1.84.15,3.72-.32,5.66l.25.29h-.33c-.14.5-.31,1-.53,1.5l-.31.72-.75.07c-1.61.16-6.63.47-11.47.54-.59,0-1.15.01-1.68.01ZM68.09,83.95c2.78.21,7.22.16,11.18,0h-11.18ZM67.27,81.24h15.8c-.1-.57-.15-1.18-.2-1.81-.34,0-.73.01-1.08.02-5.11.1-7.58-.04-8.14-1.72-.2-.6-.18-1.52,1.03-2.49l.23-.18.28-.06c1.02-.23,2.64-.12,4.35,0,1.05.07,2.69.19,3.46.1.08-.26.18-.6.26-.9.53-1.87,1.33-4.7,2.5-6.23,1.37-1.8,2.93-3.25,4.45-4.65,3.14-2.91,6.11-5.67,7.01-11.25,1.69-10.46-1.29-18.99-8.38-24.01-7.47-5.29-18.08-5.55-25.8-.64-7.24,4.6-10.58,12.78-9.42,23.04.77,6.78,4.19,10.13,7.49,13.38,2.48,2.44,4.83,4.74,5.92,8.25.42,1.36.43,2.36.42,3.03.73.04,2.2-.06,3.62-.15l1.08-.07.26,1.1c.1.41.39,1.67-.35,2.62-.75.97-1.94.93-2.98.89-.62-.02-1.47-.05-1.64.22-.19.29-.19.91-.17,1.52ZM84.89,77.14s.04.05.07.07c.23.25.33.51.39.87-.02-.54-.04-1.09-.05-1.66-.12.33-.24.55-.41.72ZM65.57,77.25c0,.2-.01.41-.02.61.12-.14.25-.26.38-.36-.13-.07-.25-.15-.36-.25Z"/>
      </g>
      <g>
        <path class="cls-1" d="M51.37,30.49c-34.13-.95-27.29,50.19,6.02,40.43.4,2.43-.43,1.55-1.87,2.04-26.6,9.01-40.79-32.14-15.32-42.9,2.63-1.11,11.32-4.34,11.17.43Z"/>
        <path class="cls-1" d="M48.07,75.61c-10.46,0-17.98-7.67-20.98-16.28-2.01-5.77-2.08-11.9-.19-17.26,2.13-6.04,6.56-10.63,12.81-13.27,3.19-1.35,8.93-3.32,11.57-1.39.66.48,1.44,1.41,1.38,3.12l-.04,1.35-1.29-.04c-9.28-.27-16.14,3.46-19.37,10.45-3.16,6.84-2.04,15.77,2.73,21.73,2.94,3.67,9.76,9.28,22.35,5.59l1.39-.41.24,1.48c.18,1.11.2,1.98-.3,2.65-.5.68-1.23.73-1.7.77-.25.02-.5.04-.75.13-2.76.94-5.39,1.36-7.85,1.36Z"/>
      </g>
      <g>
        <path class="cls-1" d="M75.46,91.58h-9.46c-.16,7.71,13.95,8.13,16.85,4.57,3.09-3.79,1.17-5.43-3.09-4.57v-2.69c5.74-.6,8.77.14,5.82,6.53-4.04,8.76-21.47,6.54-21.29-4.35.07-4.32,14.03-2.11,11.16.51Z"/>
        <path class="cls-1" d="M75.78,102.17c-1.29,0-2.56-.16-3.77-.46-5.65-1.4-9.1-5.49-9.01-10.67.02-.99.49-2.76,3.44-3.47,3.23-.78,9.33-.02,10.49,2.35.35.71.37,1.78-.61,2.67l-.36.33h-8.47c.42,1.35,1.56,2.39,3.4,3.12,3.95,1.57,9.63.88,10.99-.78,1.16-1.42,1.24-2.16,1.2-2.28-.08-.12-.9-.51-3.06-.08l-1.54.31v-5.55l1.17-.12c3.74-.39,6.49-.26,7.77,1.66,1.32,1.97.26,4.82-.65,6.8-1.97,4.28-6.51,6.16-10.97,6.16ZM82.86,90.08c1.38.23,2.09.9,2.45,1.55.04.06.07.13.1.2.07-.63-.04-.93-.13-1.07-.28-.42-1.09-.64-2.42-.68ZM69.19,89.98c-.81,0-1.59.07-2.26.25h4.96c-.84-.16-1.79-.25-2.7-.25Z"/>
      </g>
      <g>
        <path class="cls-1" d="M22.97,53.85c1.52,16.09,15.18,26.44,30.47,24.18.53-.08,11.92-4.66,8.25-.83-.31.32-7.25,2.49-8.25,2.63-14.68,2.07-29.51-7.26-31.98-23.06-.3-1.89-.98-3.39,1.5-2.92Z"/>
        <path class="cls-1" d="M49.22,81.48c-14.44,0-26.77-10.09-29.02-24.5-.04-.25-.09-.5-.13-.73-.21-1.08-.44-2.31.38-3.18.77-.82,1.95-.71,2.76-.55l.96.18.1,1.02c.67,7.12,3.91,13.39,9.11,17.67,5.48,4.49,12.51,6.38,19.83,5.32.16-.05.49-.17.94-.33,6.58-2.34,8.5-2.58,9.33-1.19.76,1.27-.47,2.55-.87,2.97-.81.85-8.92,3.01-8.99,3.02-1.48.21-2.96.31-4.41.31Z"/>
      </g>
      <g>
        <path class="cls-1" d="M55.67,23.32c.47.52.61,1.91-1.08,1.59-5.34-1.03-9.18-1.17-14.38.67l-12.07,7.6c2.14-6.48,11.7-10.2,17.64-10.76,1.8-.17,8.92-.17,9.89.9Z"/>
        <path class="cls-1" d="M25.76,36.27l1.16-3.53c2.32-7.05,12.36-11.07,18.75-11.67.09,0,9.22-.58,10.94,1.32h0c.59.65.93,1.83.42,2.81-.22.43-.92,1.38-2.68,1.04-4.99-.96-8.64-1.15-13.59.58l-15,9.46Z"/>
      </g>
      <g>
        <path class="cls-1" d="M112.46,24.21c1.51,1.31-1.15,1.98-1.62,2.32-.99.73-8.29,5.28-8.7,4.86-1.74-1.8,9.38-7.99,10.32-7.18Z"/>
        <path class="cls-1" d="M102.16,32.78c-.39,0-.67-.15-.94-.43-.33-.34-1.28-1.61.39-3.54,1.59-1.83,4.86-3.69,5.83-4.22,4.6-2.5,5.37-1.83,5.83-1.43.89.76.99,1.55.91,2.08-.18,1.31-1.48,1.89-2.33,2.27-.13.06-.25.11-.32.15-.53.39-2.69,1.76-4.63,2.9-2.66,1.57-3.95,2.21-4.75,2.21Z"/>
      </g>
      <g>
        <path class="cls-1" d="M96.97,8.04c-.32,3.71-3.16,8.46-6.01,10.78-.1-2.51,1.33-4.78,2.44-6.88.74-1.4,1.61-4.39,3.57-3.89Z"/>
        <path class="cls-1" d="M89.77,21.5l-.11-2.62c-.1-2.6,1.12-4.86,2.2-6.85l.4-.75c.12-.23.25-.51.38-.81.7-1.55,2.01-4.43,4.64-3.74l1.08.28-.1,1.16c-.37,4.34-3.6,9.37-6.51,11.72l-1.99,1.61Z"/>
      </g>
      <g>
        <path class="cls-1" d="M112.46,69.11c-3.08-.16-6.65-2.49-9.23-4.25-1.17-.8-1.85-1.89-1.08-2.93.38-.52,9.93,5.62,10.32,7.18Z"/>
        <path class="cls-1" d="M114.15,70.56l-1.76-.09c-3.19-.17-6.63-2.25-9.88-4.47-1.12-.77-1.8-1.69-1.96-2.68-.13-.77.07-1.53.56-2.2.16-.22.62-.7,1.49-.52,1.2.26,10.53,5.81,11.12,8.19l.44,1.78Z"/>
      </g>
      <g>
        <path class="cls-1" d="M25.56,37.69c-.89,3.15-1.74,6.29-2.57,9.47-.38,1.44.92,2.66-1.72,2.2-.17-2.78.47-5.46,1.33-8.05.47-1.41.9-4.24,2.97-3.62Z"/>
        <path class="cls-1" d="M22.19,50.81c-.35,0-.73-.05-1.14-.12l-1.02-.18-.07-1.07c-.2-3.25.64-6.29,1.4-8.58.06-.19.12-.4.19-.63.41-1.42,1.36-4.75,4.36-3.85l1.25.38-.37,1.31c-.88,3.13-1.72,6.22-2.57,9.45-.05.2-.03.46,0,.73.05.51.14,1.37-.51,2.01-.41.4-.92.55-1.54.55Z"/>
      </g>
      <g>
        <path class="cls-1" d="M76.32,2.65c-.27,3.3.4,7.14,0,10.34-.16,1.31-.66,2.79-1.72,1.33.27-3.3-.4-7.14,0-10.34.16-1.31.66-2.79,1.72-1.33Z"/>
        <path class="cls-1" d="M75.39,16.28c-.52,0-1.17-.25-1.82-1.14l-.3-.42.04-.52c.12-1.46.04-3.11-.04-4.71-.09-1.9-.19-3.87.03-5.68.22-1.78.8-2.78,1.76-3.05.57-.16,1.42-.1,2.27,1.08l.3.42-.04.52c-.12,1.46-.04,3.11.04,4.71.09,1.9.19,3.87-.03,5.68-.22,1.78-.8,2.78-1.76,3.05-.14.04-.29.06-.46.06Z"/>
      </g>
      <g>
        <path class="cls-1" d="M117.62,45.77c1.4,1.11-.02,1.63-1.27,1.79-3.07.41-6.75-.29-9.91,0-1.4-1.11.02-1.63,1.27-1.79,3.07-.41,6.75.29,9.91,0Z"/>
        <path class="cls-1" d="M114.07,49.05c-1,0-2.01-.05-3.01-.11-1.53-.08-3.11-.16-4.51-.04l-.5.05-.4-.32c-1.13-.89-1.18-1.78-1.03-2.37.26-1,1.24-1.62,2.93-1.84,1.74-.23,3.62-.13,5.45-.04,1.53.08,3.12.16,4.51.04l.5-.04.4.32c1.13.89,1.18,1.78,1.03,2.37-.26,1.01-1.22,1.61-2.92,1.84-.79.11-1.61.14-2.44.14Z"/>
      </g>
      <g>
        <path class="cls-1" d="M90.95,38.57c-1.02,1.12-6.15-5.37-7.44-6.15-1.74-1.06-3.4-1.22-5.17-1.83-1.34-.47-2.46.78-2.01-1.89,6.22-.61,12.23,4.1,14.62,9.87Z"/>
        <path class="cls-1" d="M90.63,40.06c-1.34,0-2.86-1.43-5.74-4.46-.73-.77-1.73-1.82-2.03-2-1.02-.62-2.05-.9-3.14-1.19-.57-.15-1.17-.31-1.78-.53-.19-.06-.41-.05-.67-.04-.47.03-1.26.07-1.84-.62-.61-.71-.53-1.74-.37-2.75l.17-1.02.99-.1c7.26-.71,13.51,4.84,15.93,10.68l.34.82-.59.65c-.32.35-.76.54-1.23.55h-.02Z"/>
      </g>
    </g>
  </g>
</svg>